<?xml version="1.0" encoding="utf-8" standalone="no"?>
<!DOCTYPE svg PUBLIC "-//W3C//DTD SVG 1.1//EN"
  "http://www.w3.org/Graphics/SVG/1.1/DTD/svg11.dtd">
<svg xmlns:xlink="http://www.w3.org/1999/xlink" width="720pt" height="360pt" viewBox="0 0 720 360" xmlns="http://www.w3.org/2000/svg" version="1.1">
 <metadata>
  <rdf:RDF xmlns:dc="http://purl.org/dc/elements/1.1/" xmlns:cc="http://creativecommons.org/ns#" xmlns:rdf="http://www.w3.org/1999/02/22-rdf-syntax-ns#">
   <cc:Work>
    <dc:type rdf:resource="http://purl.org/dc/dcmitype/StillImage"/>
    <dc:date>2026-05-31T01:11:53.226466</dc:date>
    <dc:format>image/svg+xml</dc:format>
    <dc:creator>
     <cc:Agent>
      <dc:title>Matplotlib v3.9.4, https://matplotlib.org/</dc:title>
     </cc:Agent>
    </dc:creator>
   </cc:Work>
  </rdf:RDF>
 </metadata>
 <defs>
  <style type="text/css">*{stroke-linejoin: round; stroke-linecap: butt}</style>
 </defs>
 <g id="figure_1">
  <g id="patch_1">
   <path d="M 0 360 
L 720 360 
L 720 0 
L 0 0 
z
" style="fill: #0d1117"/>
  </g>
  <g id="axes_1">
   <g id="patch_2">
    <path d="M 43.09 305.734503 
L 709.2 305.734503 
L 709.2 27.6 
L 43.09 27.6 
z
" style="fill: #0d1117"/>
   </g>
   <g id="PolyCollection_1">
    <defs>
     <path id="m4579b0c5ae" d="M 73.367727 -66.907974 
L 73.367727 -94.814743 
L 132.42383 -94.814743 
L 132.42383 -97.169932 
L 229.422714 -97.169932 
L 229.422714 -90.148803 
L 234.930537 -90.148803 
L 234.930537 -96.281182 
L 235.542517 -96.281182 
L 235.542517 -97.658745 
L 250.842026 -97.658745 
L 250.842026 -106.768439 
L 307.144217 -106.768439 
L 307.144217 -113.700694 
L 307.450207 -113.700694 
L 307.450207 -120.855136 
L 307.756197 -120.855136 
L 307.756197 -124.543451 
L 327.339568 -124.543451 
L 327.339568 -127.920703 
L 334.683332 -127.920703 
L 334.683332 -128.809454 
L 347.228929 -128.809454 
L 347.228929 -132.631082 
L 347.534919 -132.631082 
L 347.534919 -134.008645 
L 355.490664 -134.008645 
L 355.490664 -134.364145 
L 367.42428 -134.364145 
L 367.42428 -134.586333 
L 367.73027 -134.586333 
L 367.73027 -136.852647 
L 370.178192 -136.852647 
L 370.178192 -138.496836 
L 370.484182 -138.496836 
L 370.484182 -171.113983 
L 370.790172 -171.113983 
L 370.790172 -172.136046 
L 371.096162 -172.136046 
L 371.096162 -175.779924 
L 371.402152 -175.779924 
L 371.402152 -179.423801 
L 371.708143 -179.423801 
L 371.708143 -182.712179 
L 372.014133 -182.712179 
L 372.014133 -183.645367 
L 372.626113 -183.645367 
L 372.626113 -186.044993 
L 374.156064 -186.044993 
L 374.156064 -190.444309 
L 414.852756 -190.444309 
L 414.852756 -196.487813 
L 441.167911 -196.487813 
L 441.167911 -201.553691 
L 444.839793 -201.553691 
L 444.839793 -206.397382 
L 452.183557 -206.397382 
L 452.183557 -206.530695 
L 459.221331 -206.530695 
L 459.221331 -209.152509 
L 481.252623 -209.152509 
L 481.252623 -215.862576 
L 489.208368 -215.862576 
L 489.208368 -222.705956 
L 489.820348 -222.705956 
L 489.820348 -226.572021 
L 496.858122 -226.572021 
L 496.858122 -235.015152 
L 504.201886 -235.015152 
L 504.201886 -247.235473 
L 506.955797 -247.235473 
L 506.955797 -248.435286 
L 525.927188 -248.435286 
L 525.927188 -255.811916 
L 528.375109 -255.811916 
L 528.375109 -264.032859 
L 552.548333 -264.032859 
L 552.548333 -271.94274 
L 559.892097 -271.94274 
L 559.892097 -276.919743 
L 590.797104 -276.919743 
L 590.797104 -282.252247 
L 591.103094 -282.252247 
L 591.103094 -284.562998 
L 591.715074 -284.562998 
L 591.715074 -292.961692 
L 592.327055 -292.961692 
L 592.327055 -295.094693 
L 601.81275 -295.094693 
L 601.81275 -302.782386 
L 678.310292 -302.782386 
L 678.310292 -319.313147 
L 678.922273 -319.313147 
L 678.922273 -319.757523 
L 678.922273 -66.907974 
L 678.922273 -66.907974 
L 678.922273 -66.907974 
L 678.310292 -66.907974 
L 678.310292 -66.907974 
L 601.81275 -66.907974 
L 601.81275 -66.907974 
L 592.327055 -66.907974 
L 592.327055 -66.907974 
L 591.715074 -66.907974 
L 591.715074 -66.907974 
L 591.103094 -66.907974 
L 591.103094 -66.907974 
L 590.797104 -66.907974 
L 590.797104 -66.907974 
L 559.892097 -66.907974 
L 559.892097 -66.907974 
L 552.548333 -66.907974 
L 552.548333 -66.907974 
L 528.375109 -66.907974 
L 528.375109 -66.907974 
L 525.927188 -66.907974 
L 525.927188 -66.907974 
L 506.955797 -66.907974 
L 506.955797 -66.907974 
L 504.201886 -66.907974 
L 504.201886 -66.907974 
L 496.858122 -66.907974 
L 496.858122 -66.907974 
L 489.820348 -66.907974 
L 489.820348 -66.907974 
L 489.208368 -66.907974 
L 489.208368 -66.907974 
L 481.252623 -66.907974 
L 481.252623 -66.907974 
L 459.221331 -66.907974 
L 459.221331 -66.907974 
L 452.183557 -66.907974 
L 452.183557 -66.907974 
L 444.839793 -66.907974 
L 444.839793 -66.907974 
L 441.167911 -66.907974 
L 441.167911 -66.907974 
L 414.852756 -66.907974 
L 414.852756 -66.907974 
L 374.156064 -66.907974 
L 374.156064 -66.907974 
L 372.626113 -66.907974 
L 372.626113 -66.907974 
L 372.014133 -66.907974 
L 372.014133 -66.907974 
L 371.708143 -66.907974 
L 371.708143 -66.907974 
L 371.402152 -66.907974 
L 371.402152 -66.907974 
L 371.096162 -66.907974 
L 371.096162 -66.907974 
L 370.790172 -66.907974 
L 370.790172 -66.907974 
L 370.484182 -66.907974 
L 370.484182 -66.907974 
L 370.178192 -66.907974 
L 370.178192 -66.907974 
L 367.73027 -66.907974 
L 367.73027 -66.907974 
L 367.42428 -66.907974 
L 367.42428 -66.907974 
L 355.490664 -66.907974 
L 355.490664 -66.907974 
L 347.534919 -66.907974 
L 347.534919 -66.907974 
L 347.228929 -66.907974 
L 347.228929 -66.907974 
L 334.683332 -66.907974 
L 334.683332 -66.907974 
L 327.339568 -66.907974 
L 327.339568 -66.907974 
L 307.756197 -66.907974 
L 307.756197 -66.907974 
L 307.450207 -66.907974 
L 307.450207 -66.907974 
L 307.144217 -66.907974 
L 307.144217 -66.907974 
L 250.842026 -66.907974 
L 250.842026 -66.907974 
L 235.542517 -66.907974 
L 235.542517 -66.907974 
L 234.930537 -66.907974 
L 234.930537 -66.907974 
L 229.422714 -66.907974 
L 229.422714 -66.907974 
L 132.42383 -66.907974 
L 132.42383 -66.907974 
L 73.367727 -66.907974 
z
" style="stroke: #00f2ff; stroke-opacity: 0.15"/>
    </defs>
    <g clip-path="url(#p6a0b179960)">
     <use xlink:href="#m4579b0c5ae" x="0" y="360" style="fill: #00f2ff; fill-opacity: 0.15; stroke: #00f2ff; stroke-opacity: 0.15"/>
    </g>
   </g>
   <g id="matplotlib.axis_1">
    <g id="xtick_1">
     <g id="line2d_1">
      <path d="M 81.935452 305.734503 
L 81.935452 27.6 
" clip-path="url(#p6a0b179960)" style="fill: none; stroke-dasharray: 2.96,1.28; stroke-dashoffset: 0; stroke: #ffffff; stroke-opacity: 0.1; stroke-width: 0.8"/>
     </g>
     <g id="line2d_2">
      <defs>
       <path id="m4db4c44f32" d="M 0 0 
L 0 3.5 
" style="stroke: #ffffff; stroke-width: 0.8"/>
      </defs>
      <g>
       <use xlink:href="#m4db4c44f32" x="81.935452" y="305.734503" style="fill: #ffffff; stroke: #ffffff; stroke-width: 0.8"/>
      </g>
     </g>
     <g id="text_1">
      <!-- 2021-01 -->
      <g style="fill: #ffffff" transform="translate(69.11417 347.65232) rotate(-45) scale(0.1 -0.1)">
       <defs>
        <path id="DejaVuSans-32" d="M 1228 531 
L 3431 531 
L 3431 0 
L 469 0 
L 469 531 
Q 828 903 1448 1529 
Q 2069 2156 2228 2338 
Q 2531 2678 2651 2914 
Q 2772 3150 2772 3378 
Q 2772 3750 2511 3984 
Q 2250 4219 1831 4219 
Q 1534 4219 1204 4116 
Q 875 4013 500 3803 
L 500 4441 
Q 881 4594 1212 4672 
Q 1544 4750 1819 4750 
Q 2544 4750 2975 4387 
Q 3406 4025 3406 3419 
Q 3406 3131 3298 2873 
Q 3191 2616 2906 2266 
Q 2828 2175 2409 1742 
Q 1991 1309 1228 531 
z
" transform="scale(0.015625)"/>
        <path id="DejaVuSans-30" d="M 2034 4250 
Q 1547 4250 1301 3770 
Q 1056 3291 1056 2328 
Q 1056 1369 1301 889 
Q 1547 409 2034 409 
Q 2525 409 2770 889 
Q 3016 1369 3016 2328 
Q 3016 3291 2770 3770 
Q 2525 4250 2034 4250 
z
M 2034 4750 
Q 2819 4750 3233 4129 
Q 3647 3509 3647 2328 
Q 3647 1150 3233 529 
Q 2819 -91 2034 -91 
Q 1250 -91 836 529 
Q 422 1150 422 2328 
Q 422 3509 836 4129 
Q 1250 4750 2034 4750 
z
" transform="scale(0.015625)"/>
        <path id="DejaVuSans-31" d="M 794 531 
L 1825 531 
L 1825 4091 
L 703 3866 
L 703 4441 
L 1819 4666 
L 2450 4666 
L 2450 531 
L 3481 531 
L 3481 0 
L 794 0 
L 794 531 
z
" transform="scale(0.015625)"/>
        <path id="DejaVuSans-2d" d="M 313 2009 
L 1997 2009 
L 1997 1497 
L 313 1497 
L 313 2009 
z
" transform="scale(0.015625)"/>
       </defs>
       <use xlink:href="#DejaVuSans-32"/>
       <use xlink:href="#DejaVuSans-30" x="63.623047"/>
       <use xlink:href="#DejaVuSans-32" x="127.246094"/>
       <use xlink:href="#DejaVuSans-31" x="190.869141"/>
       <use xlink:href="#DejaVuSans-2d" x="254.492188"/>
       <use xlink:href="#DejaVuSans-30" x="290.576172"/>
       <use xlink:href="#DejaVuSans-31" x="354.199219"/>
      </g>
     </g>
    </g>
    <g id="xtick_2">
     <g id="line2d_3">
      <path d="M 193.621864 305.734503 
L 193.621864 27.6 
" clip-path="url(#p6a0b179960)" style="fill: none; stroke-dasharray: 2.96,1.28; stroke-dashoffset: 0; stroke: #ffffff; stroke-opacity: 0.1; stroke-width: 0.8"/>
     </g>
     <g id="line2d_4">
      <g>
       <use xlink:href="#m4db4c44f32" x="193.621864" y="305.734503" style="fill: #ffffff; stroke: #ffffff; stroke-width: 0.8"/>
      </g>
     </g>
     <g id="text_2">
      <!-- 2022-01 -->
      <g style="fill: #ffffff" transform="translate(180.800582 347.65232) rotate(-45) scale(0.1 -0.1)">
       <use xlink:href="#DejaVuSans-32"/>
       <use xlink:href="#DejaVuSans-30" x="63.623047"/>
       <use xlink:href="#DejaVuSans-32" x="127.246094"/>
       <use xlink:href="#DejaVuSans-32" x="190.869141"/>
       <use xlink:href="#DejaVuSans-2d" x="254.492188"/>
       <use xlink:href="#DejaVuSans-30" x="290.576172"/>
       <use xlink:href="#DejaVuSans-31" x="354.199219"/>
      </g>
     </g>
    </g>
    <g id="xtick_3">
     <g id="line2d_5">
      <path d="M 305.308276 305.734503 
L 305.308276 27.6 
" clip-path="url(#p6a0b179960)" style="fill: none; stroke-dasharray: 2.96,1.28; stroke-dashoffset: 0; stroke: #ffffff; stroke-opacity: 0.1; stroke-width: 0.8"/>
     </g>
     <g id="line2d_6">
      <g>
       <use xlink:href="#m4db4c44f32" x="305.308276" y="305.734503" style="fill: #ffffff; stroke: #ffffff; stroke-width: 0.8"/>
      </g>
     </g>
     <g id="text_3">
      <!-- 2023-01 -->
      <g style="fill: #ffffff" transform="translate(292.486994 347.65232) rotate(-45) scale(0.1 -0.1)">
       <defs>
        <path id="DejaVuSans-33" d="M 2597 2516 
Q 3050 2419 3304 2112 
Q 3559 1806 3559 1356 
Q 3559 666 3084 287 
Q 2609 -91 1734 -91 
Q 1441 -91 1130 -33 
Q 819 25 488 141 
L 488 750 
Q 750 597 1062 519 
Q 1375 441 1716 441 
Q 2309 441 2620 675 
Q 2931 909 2931 1356 
Q 2931 1769 2642 2001 
Q 2353 2234 1838 2234 
L 1294 2234 
L 1294 2753 
L 1863 2753 
Q 2328 2753 2575 2939 
Q 2822 3125 2822 3475 
Q 2822 3834 2567 4026 
Q 2313 4219 1838 4219 
Q 1578 4219 1281 4162 
Q 984 4106 628 3988 
L 628 4550 
Q 988 4650 1302 4700 
Q 1616 4750 1894 4750 
Q 2613 4750 3031 4423 
Q 3450 4097 3450 3541 
Q 3450 3153 3228 2886 
Q 3006 2619 2597 2516 
z
" transform="scale(0.015625)"/>
       </defs>
       <use xlink:href="#DejaVuSans-32"/>
       <use xlink:href="#DejaVuSans-30" x="63.623047"/>
       <use xlink:href="#DejaVuSans-32" x="127.246094"/>
       <use xlink:href="#DejaVuSans-33" x="190.869141"/>
       <use xlink:href="#DejaVuSans-2d" x="254.492188"/>
       <use xlink:href="#DejaVuSans-30" x="290.576172"/>
       <use xlink:href="#DejaVuSans-31" x="354.199219"/>
      </g>
     </g>
    </g>
    <g id="xtick_4">
     <g id="line2d_7">
      <path d="M 416.994688 305.734503 
L 416.994688 27.6 
" clip-path="url(#p6a0b179960)" style="fill: none; stroke-dasharray: 2.96,1.28; stroke-dashoffset: 0; stroke: #ffffff; stroke-opacity: 0.1; stroke-width: 0.8"/>
     </g>
     <g id="line2d_8">
      <g>
       <use xlink:href="#m4db4c44f32" x="416.994688" y="305.734503" style="fill: #ffffff; stroke: #ffffff; stroke-width: 0.8"/>
      </g>
     </g>
     <g id="text_4">
      <!-- 2024-01 -->
      <g style="fill: #ffffff" transform="translate(404.173405 347.65232) rotate(-45) scale(0.1 -0.1)">
       <defs>
        <path id="DejaVuSans-34" d="M 2419 4116 
L 825 1625 
L 2419 1625 
L 2419 4116 
z
M 2253 4666 
L 3047 4666 
L 3047 1625 
L 3713 1625 
L 3713 1100 
L 3047 1100 
L 3047 0 
L 2419 0 
L 2419 1100 
L 313 1100 
L 313 1709 
L 2253 4666 
z
" transform="scale(0.015625)"/>
       </defs>
       <use xlink:href="#DejaVuSans-32"/>
       <use xlink:href="#DejaVuSans-30" x="63.623047"/>
       <use xlink:href="#DejaVuSans-32" x="127.246094"/>
       <use xlink:href="#DejaVuSans-34" x="190.869141"/>
       <use xlink:href="#DejaVuSans-2d" x="254.492188"/>
       <use xlink:href="#DejaVuSans-30" x="290.576172"/>
       <use xlink:href="#DejaVuSans-31" x="354.199219"/>
      </g>
     </g>
    </g>
    <g id="xtick_5">
     <g id="line2d_9">
      <path d="M 528.98709 305.734503 
L 528.98709 27.6 
" clip-path="url(#p6a0b179960)" style="fill: none; stroke-dasharray: 2.96,1.28; stroke-dashoffset: 0; stroke: #ffffff; stroke-opacity: 0.1; stroke-width: 0.8"/>
     </g>
     <g id="line2d_10">
      <g>
       <use xlink:href="#m4db4c44f32" x="528.98709" y="305.734503" style="fill: #ffffff; stroke: #ffffff; stroke-width: 0.8"/>
      </g>
     </g>
     <g id="text_5">
      <!-- 2025-01 -->
      <g style="fill: #ffffff" transform="translate(516.165807 347.65232) rotate(-45) scale(0.1 -0.1)">
       <defs>
        <path id="DejaVuSans-35" d="M 691 4666 
L 3169 4666 
L 3169 4134 
L 1269 4134 
L 1269 2991 
Q 1406 3038 1543 3061 
Q 1681 3084 1819 3084 
Q 2600 3084 3056 2656 
Q 3513 2228 3513 1497 
Q 3513 744 3044 326 
Q 2575 -91 1722 -91 
Q 1428 -91 1123 -41 
Q 819 9 494 109 
L 494 744 
Q 775 591 1075 516 
Q 1375 441 1709 441 
Q 2250 441 2565 725 
Q 2881 1009 2881 1497 
Q 2881 1984 2565 2268 
Q 2250 2553 1709 2553 
Q 1456 2553 1204 2497 
Q 953 2441 691 2322 
L 691 4666 
z
" transform="scale(0.015625)"/>
       </defs>
       <use xlink:href="#DejaVuSans-32"/>
       <use xlink:href="#DejaVuSans-30" x="63.623047"/>
       <use xlink:href="#DejaVuSans-32" x="127.246094"/>
       <use xlink:href="#DejaVuSans-35" x="190.869141"/>
       <use xlink:href="#DejaVuSans-2d" x="254.492188"/>
       <use xlink:href="#DejaVuSans-30" x="290.576172"/>
       <use xlink:href="#DejaVuSans-31" x="354.199219"/>
      </g>
     </g>
    </g>
    <g id="xtick_6">
     <g id="line2d_11">
      <path d="M 640.673502 305.734503 
L 640.673502 27.6 
" clip-path="url(#p6a0b179960)" style="fill: none; stroke-dasharray: 2.96,1.28; stroke-dashoffset: 0; stroke: #ffffff; stroke-opacity: 0.1; stroke-width: 0.8"/>
     </g>
     <g id="line2d_12">
      <g>
       <use xlink:href="#m4db4c44f32" x="640.673502" y="305.734503" style="fill: #ffffff; stroke: #ffffff; stroke-width: 0.8"/>
      </g>
     </g>
     <g id="text_6">
      <!-- 2026-01 -->
      <g style="fill: #ffffff" transform="translate(627.852219 347.65232) rotate(-45) scale(0.1 -0.1)">
       <defs>
        <path id="DejaVuSans-36" d="M 2113 2584 
Q 1688 2584 1439 2293 
Q 1191 2003 1191 1497 
Q 1191 994 1439 701 
Q 1688 409 2113 409 
Q 2538 409 2786 701 
Q 3034 994 3034 1497 
Q 3034 2003 2786 2293 
Q 2538 2584 2113 2584 
z
M 3366 4563 
L 3366 3988 
Q 3128 4100 2886 4159 
Q 2644 4219 2406 4219 
Q 1781 4219 1451 3797 
Q 1122 3375 1075 2522 
Q 1259 2794 1537 2939 
Q 1816 3084 2150 3084 
Q 2853 3084 3261 2657 
Q 3669 2231 3669 1497 
Q 3669 778 3244 343 
Q 2819 -91 2113 -91 
Q 1303 -91 875 529 
Q 447 1150 447 2328 
Q 447 3434 972 4092 
Q 1497 4750 2381 4750 
Q 2619 4750 2861 4703 
Q 3103 4656 3366 4563 
z
" transform="scale(0.015625)"/>
       </defs>
       <use xlink:href="#DejaVuSans-32"/>
       <use xlink:href="#DejaVuSans-30" x="63.623047"/>
       <use xlink:href="#DejaVuSans-32" x="127.246094"/>
       <use xlink:href="#DejaVuSans-36" x="190.869141"/>
       <use xlink:href="#DejaVuSans-2d" x="254.492188"/>
       <use xlink:href="#DejaVuSans-30" x="290.576172"/>
       <use xlink:href="#DejaVuSans-31" x="354.199219"/>
      </g>
     </g>
    </g>
   </g>
   <g id="matplotlib.axis_2">
    <g id="ytick_1">
     <g id="line2d_13">
      <path d="M 43.09 293.092026 
L 709.2 293.092026 
" clip-path="url(#p6a0b179960)" style="fill: none; stroke-dasharray: 2.96,1.28; stroke-dashoffset: 0; stroke: #ffffff; stroke-opacity: 0.1; stroke-width: 0.8"/>
     </g>
     <g id="line2d_14">
      <defs>
       <path id="macec0a64a9" d="M 0 0 
L -3.5 0 
" style="stroke: #ffffff; stroke-width: 0.8"/>
      </defs>
      <g>
       <use xlink:href="#macec0a64a9" x="43.09" y="293.092026" style="fill: #ffffff; stroke: #ffffff; stroke-width: 0.8"/>
      </g>
     </g>
     <g id="text_7">
      <!-- 0 -->
      <g style="fill: #ffffff" transform="translate(29.7275 296.891245) scale(0.1 -0.1)">
       <use xlink:href="#DejaVuSans-30"/>
      </g>
     </g>
    </g>
    <g id="ytick_2">
     <g id="line2d_15">
      <path d="M 43.09 248.654495 
L 709.2 248.654495 
" clip-path="url(#p6a0b179960)" style="fill: none; stroke-dasharray: 2.96,1.28; stroke-dashoffset: 0; stroke: #ffffff; stroke-opacity: 0.1; stroke-width: 0.8"/>
     </g>
     <g id="line2d_16">
      <g>
       <use xlink:href="#macec0a64a9" x="43.09" y="248.654495" style="fill: #ffffff; stroke: #ffffff; stroke-width: 0.8"/>
      </g>
     </g>
     <g id="text_8">
      <!-- 1000 -->
      <g style="fill: #ffffff" transform="translate(10.64 252.453714) scale(0.1 -0.1)">
       <use xlink:href="#DejaVuSans-31"/>
       <use xlink:href="#DejaVuSans-30" x="63.623047"/>
       <use xlink:href="#DejaVuSans-30" x="127.246094"/>
       <use xlink:href="#DejaVuSans-30" x="190.869141"/>
      </g>
     </g>
    </g>
    <g id="ytick_3">
     <g id="line2d_17">
      <path d="M 43.09 204.216965 
L 709.2 204.216965 
" clip-path="url(#p6a0b179960)" style="fill: none; stroke-dasharray: 2.96,1.28; stroke-dashoffset: 0; stroke: #ffffff; stroke-opacity: 0.1; stroke-width: 0.8"/>
     </g>
     <g id="line2d_18">
      <g>
       <use xlink:href="#macec0a64a9" x="43.09" y="204.216965" style="fill: #ffffff; stroke: #ffffff; stroke-width: 0.8"/>
      </g>
     </g>
     <g id="text_9">
      <!-- 2000 -->
      <g style="fill: #ffffff" transform="translate(10.64 208.016184) scale(0.1 -0.1)">
       <use xlink:href="#DejaVuSans-32"/>
       <use xlink:href="#DejaVuSans-30" x="63.623047"/>
       <use xlink:href="#DejaVuSans-30" x="127.246094"/>
       <use xlink:href="#DejaVuSans-30" x="190.869141"/>
      </g>
     </g>
    </g>
    <g id="ytick_4">
     <g id="line2d_19">
      <path d="M 43.09 159.779434 
L 709.2 159.779434 
" clip-path="url(#p6a0b179960)" style="fill: none; stroke-dasharray: 2.96,1.28; stroke-dashoffset: 0; stroke: #ffffff; stroke-opacity: 0.1; stroke-width: 0.8"/>
     </g>
     <g id="line2d_20">
      <g>
       <use xlink:href="#macec0a64a9" x="43.09" y="159.779434" style="fill: #ffffff; stroke: #ffffff; stroke-width: 0.8"/>
      </g>
     </g>
     <g id="text_10">
      <!-- 3000 -->
      <g style="fill: #ffffff" transform="translate(10.64 163.578653) scale(0.1 -0.1)">
       <use xlink:href="#DejaVuSans-33"/>
       <use xlink:href="#DejaVuSans-30" x="63.623047"/>
       <use xlink:href="#DejaVuSans-30" x="127.246094"/>
       <use xlink:href="#DejaVuSans-30" x="190.869141"/>
      </g>
     </g>
    </g>
    <g id="ytick_5">
     <g id="line2d_21">
      <path d="M 43.09 115.341904 
L 709.2 115.341904 
" clip-path="url(#p6a0b179960)" style="fill: none; stroke-dasharray: 2.96,1.28; stroke-dashoffset: 0; stroke: #ffffff; stroke-opacity: 0.1; stroke-width: 0.8"/>
     </g>
     <g id="line2d_22">
      <g>
       <use xlink:href="#macec0a64a9" x="43.09" y="115.341904" style="fill: #ffffff; stroke: #ffffff; stroke-width: 0.8"/>
      </g>
     </g>
     <g id="text_11">
      <!-- 4000 -->
      <g style="fill: #ffffff" transform="translate(10.64 119.141123) scale(0.1 -0.1)">
       <use xlink:href="#DejaVuSans-34"/>
       <use xlink:href="#DejaVuSans-30" x="63.623047"/>
       <use xlink:href="#DejaVuSans-30" x="127.246094"/>
       <use xlink:href="#DejaVuSans-30" x="190.869141"/>
      </g>
     </g>
    </g>
    <g id="ytick_6">
     <g id="line2d_23">
      <path d="M 43.09 70.904373 
L 709.2 70.904373 
" clip-path="url(#p6a0b179960)" style="fill: none; stroke-dasharray: 2.96,1.28; stroke-dashoffset: 0; stroke: #ffffff; stroke-opacity: 0.1; stroke-width: 0.8"/>
     </g>
     <g id="line2d_24">
      <g>
       <use xlink:href="#macec0a64a9" x="43.09" y="70.904373" style="fill: #ffffff; stroke: #ffffff; stroke-width: 0.8"/>
      </g>
     </g>
     <g id="text_12">
      <!-- 5000 -->
      <g style="fill: #ffffff" transform="translate(10.64 74.703592) scale(0.1 -0.1)">
       <use xlink:href="#DejaVuSans-35"/>
       <use xlink:href="#DejaVuSans-30" x="63.623047"/>
       <use xlink:href="#DejaVuSans-30" x="127.246094"/>
       <use xlink:href="#DejaVuSans-30" x="190.869141"/>
      </g>
     </g>
    </g>
   </g>
   <g id="line2d_25">
    <path d="M 73.367727 265.185257 
L 132.42383 265.185257 
L 132.42383 262.830068 
L 229.422714 262.830068 
L 229.422714 269.851197 
L 234.930537 269.851197 
L 234.930537 263.718818 
L 235.542517 263.718818 
L 235.542517 262.341255 
L 250.842026 262.341255 
L 250.842026 253.231561 
L 307.144217 253.231561 
L 307.144217 246.299306 
L 307.450207 246.299306 
L 307.450207 239.144864 
L 307.756197 239.144864 
L 307.756197 235.456549 
L 327.339568 235.456549 
L 327.339568 232.079297 
L 334.683332 232.079297 
L 334.683332 231.190546 
L 347.228929 231.190546 
L 347.228929 227.368918 
L 347.534919 227.368918 
L 347.534919 225.991355 
L 355.490664 225.991355 
L 355.490664 225.635855 
L 367.42428 225.635855 
L 367.42428 225.413667 
L 367.73027 225.413667 
L 367.73027 223.147353 
L 370.178192 223.147353 
L 370.178192 221.503164 
L 370.484182 221.503164 
L 370.484182 188.886017 
L 370.790172 188.886017 
L 370.790172 187.863954 
L 371.096162 187.863954 
L 371.096162 184.220076 
L 371.402152 184.220076 
L 371.402152 180.576199 
L 371.708143 180.576199 
L 371.708143 177.287821 
L 372.014133 177.287821 
L 372.014133 176.354633 
L 372.626113 176.354633 
L 372.626113 173.955007 
L 374.156064 173.955007 
L 374.156064 169.555691 
L 414.852756 169.555691 
L 414.852756 163.512187 
L 441.167911 163.512187 
L 441.167911 158.446309 
L 444.839793 158.446309 
L 444.839793 153.602618 
L 452.183557 153.602618 
L 452.183557 153.469305 
L 459.221331 153.469305 
L 459.221331 150.847491 
L 481.252623 150.847491 
L 481.252623 144.137424 
L 489.208368 144.137424 
L 489.208368 137.294044 
L 489.820348 137.294044 
L 489.820348 133.427979 
L 496.858122 133.427979 
L 496.858122 124.984848 
L 504.201886 124.984848 
L 504.201886 112.764527 
L 506.955797 112.764527 
L 506.955797 111.564714 
L 525.927188 111.564714 
L 525.927188 104.188084 
L 528.375109 104.188084 
L 528.375109 95.967141 
L 552.548333 95.967141 
L 552.548333 88.05726 
L 559.892097 88.05726 
L 559.892097 83.080257 
L 590.797104 83.080257 
L 590.797104 77.747753 
L 591.103094 77.747753 
L 591.103094 75.437002 
L 591.715074 75.437002 
L 591.715074 67.038308 
L 592.327055 67.038308 
L 592.327055 64.905307 
L 601.81275 64.905307 
L 601.81275 57.217614 
L 678.310292 57.217614 
L 678.310292 40.686853 
L 678.922273 40.686853 
L 678.922273 40.242477 
" clip-path="url(#p6a0b179960)" style="fill: none; stroke: #00f2ff; stroke-width: 2; stroke-linecap: square"/>
   </g>
   <g id="text_13">
    <!-- Lines of Code (SLOC): hooyuser/Topology -->
    <g style="fill: #ffffff" transform="translate(214.2175 21.6) scale(0.14 -0.14)">
     <defs>
      <path id="DejaVuSans-Bold-4c" d="M 588 4666 
L 1791 4666 
L 1791 909 
L 3903 909 
L 3903 0 
L 588 0 
L 588 4666 
z
" transform="scale(0.015625)"/>
      <path id="DejaVuSans-Bold-69" d="M 538 3500 
L 1656 3500 
L 1656 0 
L 538 0 
L 538 3500 
z
M 538 4863 
L 1656 4863 
L 1656 3950 
L 538 3950 
L 538 4863 
z
" transform="scale(0.015625)"/>
      <path id="DejaVuSans-Bold-6e" d="M 4056 2131 
L 4056 0 
L 2931 0 
L 2931 347 
L 2931 1631 
Q 2931 2084 2911 2256 
Q 2891 2428 2841 2509 
Q 2775 2619 2662 2680 
Q 2550 2741 2406 2741 
Q 2056 2741 1856 2470 
Q 1656 2200 1656 1722 
L 1656 0 
L 538 0 
L 538 3500 
L 1656 3500 
L 1656 2988 
Q 1909 3294 2193 3439 
Q 2478 3584 2822 3584 
Q 3428 3584 3742 3212 
Q 4056 2841 4056 2131 
z
" transform="scale(0.015625)"/>
      <path id="DejaVuSans-Bold-65" d="M 4031 1759 
L 4031 1441 
L 1416 1441 
Q 1456 1047 1700 850 
Q 1944 653 2381 653 
Q 2734 653 3104 758 
Q 3475 863 3866 1075 
L 3866 213 
Q 3469 63 3072 -14 
Q 2675 -91 2278 -91 
Q 1328 -91 801 392 
Q 275 875 275 1747 
Q 275 2603 792 3093 
Q 1309 3584 2216 3584 
Q 3041 3584 3536 3087 
Q 4031 2591 4031 1759 
z
M 2881 2131 
Q 2881 2450 2695 2645 
Q 2509 2841 2209 2841 
Q 1884 2841 1681 2658 
Q 1478 2475 1428 2131 
L 2881 2131 
z
" transform="scale(0.015625)"/>
      <path id="DejaVuSans-Bold-73" d="M 3272 3391 
L 3272 2541 
Q 2913 2691 2578 2766 
Q 2244 2841 1947 2841 
Q 1628 2841 1473 2761 
Q 1319 2681 1319 2516 
Q 1319 2381 1436 2309 
Q 1553 2238 1856 2203 
L 2053 2175 
Q 2913 2066 3209 1816 
Q 3506 1566 3506 1031 
Q 3506 472 3093 190 
Q 2681 -91 1863 -91 
Q 1516 -91 1145 -36 
Q 775 19 384 128 
L 384 978 
Q 719 816 1070 734 
Q 1422 653 1784 653 
Q 2113 653 2278 743 
Q 2444 834 2444 1013 
Q 2444 1163 2330 1236 
Q 2216 1309 1875 1350 
L 1678 1375 
Q 931 1469 631 1722 
Q 331 1975 331 2491 
Q 331 3047 712 3315 
Q 1094 3584 1881 3584 
Q 2191 3584 2531 3537 
Q 2872 3491 3272 3391 
z
" transform="scale(0.015625)"/>
      <path id="DejaVuSans-Bold-20" transform="scale(0.015625)"/>
      <path id="DejaVuSans-Bold-6f" d="M 2203 2784 
Q 1831 2784 1636 2517 
Q 1441 2250 1441 1747 
Q 1441 1244 1636 976 
Q 1831 709 2203 709 
Q 2569 709 2762 976 
Q 2956 1244 2956 1747 
Q 2956 2250 2762 2517 
Q 2569 2784 2203 2784 
z
M 2203 3584 
Q 3106 3584 3614 3096 
Q 4122 2609 4122 1747 
Q 4122 884 3614 396 
Q 3106 -91 2203 -91 
Q 1297 -91 786 396 
Q 275 884 275 1747 
Q 275 2609 786 3096 
Q 1297 3584 2203 3584 
z
" transform="scale(0.015625)"/>
      <path id="DejaVuSans-Bold-66" d="M 2841 4863 
L 2841 4128 
L 2222 4128 
Q 1984 4128 1890 4042 
Q 1797 3956 1797 3744 
L 1797 3500 
L 2753 3500 
L 2753 2700 
L 1797 2700 
L 1797 0 
L 678 0 
L 678 2700 
L 122 2700 
L 122 3500 
L 678 3500 
L 678 3744 
Q 678 4316 997 4589 
Q 1316 4863 1984 4863 
L 2841 4863 
z
" transform="scale(0.015625)"/>
      <path id="DejaVuSans-Bold-43" d="M 4288 256 
Q 3956 84 3597 -3 
Q 3238 -91 2847 -91 
Q 1681 -91 1000 561 
Q 319 1213 319 2328 
Q 319 3447 1000 4098 
Q 1681 4750 2847 4750 
Q 3238 4750 3597 4662 
Q 3956 4575 4288 4403 
L 4288 3438 
Q 3953 3666 3628 3772 
Q 3303 3878 2944 3878 
Q 2300 3878 1931 3465 
Q 1563 3053 1563 2328 
Q 1563 1606 1931 1193 
Q 2300 781 2944 781 
Q 3303 781 3628 887 
Q 3953 994 4288 1222 
L 4288 256 
z
" transform="scale(0.015625)"/>
      <path id="DejaVuSans-Bold-64" d="M 2919 2988 
L 2919 4863 
L 4044 4863 
L 4044 0 
L 2919 0 
L 2919 506 
Q 2688 197 2409 53 
Q 2131 -91 1766 -91 
Q 1119 -91 703 423 
Q 288 938 288 1747 
Q 288 2556 703 3070 
Q 1119 3584 1766 3584 
Q 2128 3584 2408 3439 
Q 2688 3294 2919 2988 
z
M 2181 722 
Q 2541 722 2730 984 
Q 2919 1247 2919 1747 
Q 2919 2247 2730 2509 
Q 2541 2772 2181 2772 
Q 1825 2772 1636 2509 
Q 1447 2247 1447 1747 
Q 1447 1247 1636 984 
Q 1825 722 2181 722 
z
" transform="scale(0.015625)"/>
      <path id="DejaVuSans-Bold-28" d="M 2413 -844 
L 1484 -844 
Q 1006 -72 778 623 
Q 550 1319 550 2003 
Q 550 2688 779 3389 
Q 1009 4091 1484 4856 
L 2413 4856 
Q 2013 4116 1813 3408 
Q 1613 2700 1613 2009 
Q 1613 1319 1811 609 
Q 2009 -100 2413 -844 
z
" transform="scale(0.015625)"/>
      <path id="DejaVuSans-Bold-53" d="M 3834 4519 
L 3834 3531 
Q 3450 3703 3084 3790 
Q 2719 3878 2394 3878 
Q 1963 3878 1756 3759 
Q 1550 3641 1550 3391 
Q 1550 3203 1689 3098 
Q 1828 2994 2194 2919 
L 2706 2816 
Q 3484 2659 3812 2340 
Q 4141 2022 4141 1434 
Q 4141 663 3683 286 
Q 3225 -91 2284 -91 
Q 1841 -91 1394 -6 
Q 947 78 500 244 
L 500 1259 
Q 947 1022 1364 901 
Q 1781 781 2169 781 
Q 2563 781 2772 912 
Q 2981 1044 2981 1288 
Q 2981 1506 2839 1625 
Q 2697 1744 2272 1838 
L 1806 1941 
Q 1106 2091 782 2419 
Q 459 2747 459 3303 
Q 459 4000 909 4375 
Q 1359 4750 2203 4750 
Q 2588 4750 2994 4692 
Q 3400 4634 3834 4519 
z
" transform="scale(0.015625)"/>
      <path id="DejaVuSans-Bold-4f" d="M 2719 3878 
Q 2169 3878 1866 3472 
Q 1563 3066 1563 2328 
Q 1563 1594 1866 1187 
Q 2169 781 2719 781 
Q 3272 781 3575 1187 
Q 3878 1594 3878 2328 
Q 3878 3066 3575 3472 
Q 3272 3878 2719 3878 
z
M 2719 4750 
Q 3844 4750 4481 4106 
Q 5119 3463 5119 2328 
Q 5119 1197 4481 553 
Q 3844 -91 2719 -91 
Q 1597 -91 958 553 
Q 319 1197 319 2328 
Q 319 3463 958 4106 
Q 1597 4750 2719 4750 
z
" transform="scale(0.015625)"/>
      <path id="DejaVuSans-Bold-29" d="M 513 -844 
Q 913 -100 1113 609 
Q 1313 1319 1313 2009 
Q 1313 2700 1113 3408 
Q 913 4116 513 4856 
L 1441 4856 
Q 1916 4091 2145 3389 
Q 2375 2688 2375 2003 
Q 2375 1319 2147 623 
Q 1919 -72 1441 -844 
L 513 -844 
z
" transform="scale(0.015625)"/>
      <path id="DejaVuSans-Bold-3a" d="M 716 3500 
L 1844 3500 
L 1844 2291 
L 716 2291 
L 716 3500 
z
M 716 1209 
L 1844 1209 
L 1844 0 
L 716 0 
L 716 1209 
z
" transform="scale(0.015625)"/>
      <path id="DejaVuSans-Bold-68" d="M 4056 2131 
L 4056 0 
L 2931 0 
L 2931 347 
L 2931 1625 
Q 2931 2084 2911 2256 
Q 2891 2428 2841 2509 
Q 2775 2619 2662 2680 
Q 2550 2741 2406 2741 
Q 2056 2741 1856 2470 
Q 1656 2200 1656 1722 
L 1656 0 
L 538 0 
L 538 4863 
L 1656 4863 
L 1656 2988 
Q 1909 3294 2193 3439 
Q 2478 3584 2822 3584 
Q 3428 3584 3742 3212 
Q 4056 2841 4056 2131 
z
" transform="scale(0.015625)"/>
      <path id="DejaVuSans-Bold-79" d="M 78 3500 
L 1197 3500 
L 2138 1125 
L 2938 3500 
L 4056 3500 
L 2584 -331 
Q 2363 -916 2067 -1148 
Q 1772 -1381 1288 -1381 
L 641 -1381 
L 641 -647 
L 991 -647 
Q 1275 -647 1404 -556 
Q 1534 -466 1606 -231 
L 1638 -134 
L 78 3500 
z
" transform="scale(0.015625)"/>
      <path id="DejaVuSans-Bold-75" d="M 500 1363 
L 500 3500 
L 1625 3500 
L 1625 3150 
Q 1625 2866 1622 2436 
Q 1619 2006 1619 1863 
Q 1619 1441 1641 1255 
Q 1663 1069 1716 984 
Q 1784 875 1895 815 
Q 2006 756 2150 756 
Q 2500 756 2700 1025 
Q 2900 1294 2900 1772 
L 2900 3500 
L 4019 3500 
L 4019 0 
L 2900 0 
L 2900 506 
Q 2647 200 2364 54 
Q 2081 -91 1741 -91 
Q 1134 -91 817 281 
Q 500 653 500 1363 
z
" transform="scale(0.015625)"/>
      <path id="DejaVuSans-Bold-72" d="M 3138 2547 
Q 2991 2616 2845 2648 
Q 2700 2681 2553 2681 
Q 2122 2681 1889 2404 
Q 1656 2128 1656 1613 
L 1656 0 
L 538 0 
L 538 3500 
L 1656 3500 
L 1656 2925 
Q 1872 3269 2151 3426 
Q 2431 3584 2822 3584 
Q 2878 3584 2943 3579 
Q 3009 3575 3134 3559 
L 3138 2547 
z
" transform="scale(0.015625)"/>
      <path id="DejaVuSans-Bold-2f" d="M 1644 4666 
L 2338 4666 
L 691 -594 
L 0 -594 
L 1644 4666 
z
" transform="scale(0.015625)"/>
      <path id="DejaVuSans-Bold-54" d="M 31 4666 
L 4331 4666 
L 4331 3756 
L 2784 3756 
L 2784 0 
L 1581 0 
L 1581 3756 
L 31 3756 
L 31 4666 
z
" transform="scale(0.015625)"/>
      <path id="DejaVuSans-Bold-70" d="M 1656 506 
L 1656 -1331 
L 538 -1331 
L 538 3500 
L 1656 3500 
L 1656 2988 
Q 1888 3294 2169 3439 
Q 2450 3584 2816 3584 
Q 3463 3584 3878 3070 
Q 4294 2556 4294 1747 
Q 4294 938 3878 423 
Q 3463 -91 2816 -91 
Q 2450 -91 2169 54 
Q 1888 200 1656 506 
z
M 2400 2772 
Q 2041 2772 1848 2508 
Q 1656 2244 1656 1747 
Q 1656 1250 1848 986 
Q 2041 722 2400 722 
Q 2759 722 2948 984 
Q 3138 1247 3138 1747 
Q 3138 2247 2948 2509 
Q 2759 2772 2400 2772 
z
" transform="scale(0.015625)"/>
      <path id="DejaVuSans-Bold-6c" d="M 538 4863 
L 1656 4863 
L 1656 0 
L 538 0 
L 538 4863 
z
" transform="scale(0.015625)"/>
      <path id="DejaVuSans-Bold-67" d="M 2919 594 
Q 2688 288 2409 144 
Q 2131 0 1766 0 
Q 1125 0 706 504 
Q 288 1009 288 1791 
Q 288 2575 706 3076 
Q 1125 3578 1766 3578 
Q 2131 3578 2409 3434 
Q 2688 3291 2919 2981 
L 2919 3500 
L 4044 3500 
L 4044 353 
Q 4044 -491 3511 -936 
Q 2978 -1381 1966 -1381 
Q 1638 -1381 1331 -1331 
Q 1025 -1281 716 -1178 
L 716 -306 
Q 1009 -475 1290 -558 
Q 1572 -641 1856 -641 
Q 2406 -641 2662 -400 
Q 2919 -159 2919 353 
L 2919 594 
z
M 2181 2772 
Q 1834 2772 1640 2515 
Q 1447 2259 1447 1791 
Q 1447 1309 1634 1061 
Q 1822 813 2181 813 
Q 2531 813 2725 1069 
Q 2919 1325 2919 1791 
Q 2919 2259 2725 2515 
Q 2531 2772 2181 2772 
z
" transform="scale(0.015625)"/>
     </defs>
     <use xlink:href="#DejaVuSans-Bold-4c"/>
     <use xlink:href="#DejaVuSans-Bold-69" x="63.720703"/>
     <use xlink:href="#DejaVuSans-Bold-6e" x="97.998047"/>
     <use xlink:href="#DejaVuSans-Bold-65" x="169.189453"/>
     <use xlink:href="#DejaVuSans-Bold-73" x="237.011719"/>
     <use xlink:href="#DejaVuSans-Bold-20" x="296.533203"/>
     <use xlink:href="#DejaVuSans-Bold-6f" x="331.347656"/>
     <use xlink:href="#DejaVuSans-Bold-66" x="400.048828"/>
     <use xlink:href="#DejaVuSans-Bold-20" x="443.554688"/>
     <use xlink:href="#DejaVuSans-Bold-43" x="478.369141"/>
     <use xlink:href="#DejaVuSans-Bold-6f" x="551.757812"/>
     <use xlink:href="#DejaVuSans-Bold-64" x="620.458984"/>
     <use xlink:href="#DejaVuSans-Bold-65" x="692.041016"/>
     <use xlink:href="#DejaVuSans-Bold-20" x="759.863281"/>
     <use xlink:href="#DejaVuSans-Bold-28" x="794.677734"/>
     <use xlink:href="#DejaVuSans-Bold-53" x="840.380859"/>
     <use xlink:href="#DejaVuSans-Bold-4c" x="912.402344"/>
     <use xlink:href="#DejaVuSans-Bold-4f" x="972.498047"/>
     <use xlink:href="#DejaVuSans-Bold-43" x="1057.507812"/>
     <use xlink:href="#DejaVuSans-Bold-29" x="1130.896484"/>
     <use xlink:href="#DejaVuSans-Bold-3a" x="1176.599609"/>
     <use xlink:href="#DejaVuSans-Bold-20" x="1216.589844"/>
     <use xlink:href="#DejaVuSans-Bold-68" x="1251.404297"/>
     <use xlink:href="#DejaVuSans-Bold-6f" x="1322.595703"/>
     <use xlink:href="#DejaVuSans-Bold-6f" x="1391.296875"/>
     <use xlink:href="#DejaVuSans-Bold-79" x="1459.998047"/>
     <use xlink:href="#DejaVuSans-Bold-75" x="1525.183594"/>
     <use xlink:href="#DejaVuSans-Bold-73" x="1596.375"/>
     <use xlink:href="#DejaVuSans-Bold-65" x="1655.896484"/>
     <use xlink:href="#DejaVuSans-Bold-72" x="1723.71875"/>
     <use xlink:href="#DejaVuSans-Bold-2f" x="1773.035156"/>
     <use xlink:href="#DejaVuSans-Bold-54" x="1809.558594"/>
     <use xlink:href="#DejaVuSans-Bold-6f" x="1864.521484"/>
     <use xlink:href="#DejaVuSans-Bold-70" x="1933.222656"/>
     <use xlink:href="#DejaVuSans-Bold-6f" x="2004.804688"/>
     <use xlink:href="#DejaVuSans-Bold-6c" x="2073.505859"/>
     <use xlink:href="#DejaVuSans-Bold-6f" x="2107.783203"/>
     <use xlink:href="#DejaVuSans-Bold-67" x="2176.484375"/>
     <use xlink:href="#DejaVuSans-Bold-79" x="2248.066406"/>
    </g>
   </g>
  </g>
 </g>
 <defs>
  <clipPath id="p6a0b179960">
   <rect x="43.09" y="27.6" width="666.11" height="278.134503"/>
  </clipPath>
 </defs>
</svg>
