<?xml version="1.0" encoding="utf-8" standalone="no"?>
<!DOCTYPE svg PUBLIC "-//W3C//DTD SVG 1.1//EN"
  "http://www.w3.org/Graphics/SVG/1.1/DTD/svg11.dtd">
<svg xmlns:xlink="http://www.w3.org/1999/xlink" width="720pt" height="360pt" viewBox="0 0 720 360" xmlns="http://www.w3.org/2000/svg" version="1.1">
 <metadata>
  <rdf:RDF xmlns:dc="http://purl.org/dc/elements/1.1/" xmlns:cc="http://creativecommons.org/ns#" xmlns:rdf="http://www.w3.org/1999/02/22-rdf-syntax-ns#">
   <cc:Work>
    <dc:type rdf:resource="http://purl.org/dc/dcmitype/StillImage"/>
    <dc:date>2026-01-03T00:33:06.153755</dc:date>
    <dc:format>image/svg+xml</dc:format>
    <dc:creator>
     <cc:Agent>
      <dc:title>Matplotlib v3.9.4, https://matplotlib.org/</dc:title>
     </cc:Agent>
    </dc:creator>
   </cc:Work>
  </rdf:RDF>
 </metadata>
 <defs>
  <style type="text/css">*{stroke-linejoin: round; stroke-linecap: butt}</style>
 </defs>
 <g id="figure_1">
  <g id="patch_1">
   <path d="M 0 360 
L 720 360 
L 720 0 
L 0 0 
z
" style="fill: #0d1117"/>
  </g>
  <g id="axes_1">
   <g id="patch_2">
    <path d="M 55.69 305.734503 
L 709.2 305.734503 
L 709.2 27.6 
L 55.69 27.6 
z
" style="fill: #0d1117"/>
   </g>
   <g id="PolyCollection_1">
    <defs>
     <path id="m4cafa04700" d="M 85.395 -66.907974 
L 85.395 -224.715916 
L 85.790539 -224.715916 
L 85.790539 -224.796716 
L 86.186079 -224.796716 
L 86.186079 -227.568816 
L 89.745932 -227.568816 
L 89.745932 -227.575422 
L 110.313975 -227.575422 
L 110.313975 -227.685188 
L 110.709514 -227.685188 
L 110.709514 -227.680615 
L 111.105053 -227.680615 
L 111.105053 -227.678582 
L 111.500593 -227.678582 
L 111.500593 -231.674369 
L 113.478289 -231.674369 
L 113.478289 -231.653534 
L 113.873828 -231.653534 
L 113.873828 -231.717056 
L 114.269368 -231.717056 
L 114.269368 -232.113942 
L 114.664907 -232.113942 
L 114.664907 -232.121056 
L 115.851525 -232.121056 
L 115.851525 -232.153071 
L 116.247064 -232.153071 
L 116.247064 -232.206938 
L 117.433682 -232.206938 
L 117.433682 -240.33013 
L 119.015839 -240.33013 
L 119.015839 -240.387046 
L 120.993535 -240.387046 
L 120.993535 -240.411438 
L 121.389075 -240.411438 
L 121.389075 -240.442945 
L 124.553389 -240.442945 
L 124.553389 -264.441046 
L 124.948928 -264.441046 
L 124.948928 -264.437489 
L 125.344467 -264.437489 
L 125.344467 -264.601122 
L 125.740007 -264.601122 
L 125.740007 -264.59604 
L 127.322164 -264.59604 
L 127.322164 -264.636694 
L 127.717703 -264.636694 
L 127.717703 -264.669725 
L 128.113242 -264.669725 
L 128.113242 -264.697675 
L 128.508782 -264.697675 
L 128.508782 -264.710888 
L 129.695399 -264.710888 
L 129.695399 -264.862832 
L 130.486478 -264.862832 
L 130.486478 -265.700306 
L 131.673096 -265.700306 
L 131.673096 -265.863939 
L 132.068635 -265.863939 
L 132.068635 -268.716839 
L 132.464174 -268.716839 
L 132.464174 -268.772738 
L 132.859714 -268.772738 
L 132.859714 -268.780361 
L 133.255253 -268.780361 
L 133.255253 -268.915535 
L 133.650792 -268.915535 
L 133.650792 -268.964829 
L 134.046332 -268.964829 
L 134.046332 -268.948059 
L 134.441871 -268.948059 
L 134.441871 -268.949075 
L 134.83741 -268.949075 
L 134.83741 -269.121347 
L 135.232949 -269.121347 
L 135.232949 -269.135576 
L 135.628489 -269.135576 
L 135.628489 -269.129986 
L 136.419567 -269.129986 
L 136.419567 -269.137608 
L 136.815107 -269.137608 
L 136.815107 -269.132527 
L 137.606185 -269.132527 
L 137.606185 -269.165558 
L 138.001724 -269.165558 
L 138.001724 -269.208245 
L 138.397264 -269.208245 
L 138.397264 -269.263128 
L 138.792803 -269.263128 
L 138.792803 -269.28752 
L 139.188342 -269.28752 
L 139.188342 -269.247374 
L 139.583881 -269.247374 
L 139.583881 -269.263128 
L 140.37496 -269.263128 
L 140.37496 -269.389664 
L 140.770499 -269.389664 
L 140.770499 -269.445055 
L 141.561578 -269.445055 
L 141.561578 -269.472496 
L 141.957117 -269.472496 
L 141.957117 -269.490282 
L 142.352656 -269.490282 
L 142.352656 -269.499938 
L 143.143735 -269.499938 
L 143.143735 -269.592426 
L 143.539274 -269.592426 
L 143.539274 -269.629015 
L 144.330353 -269.629015 
L 144.330353 -269.871414 
L 145.91251 -269.871414 
L 145.91251 -269.97305 
L 146.308049 -269.97305 
L 146.308049 -270.056899 
L 147.494667 -270.056899 
L 147.494667 -270.089422 
L 148.285746 -270.089422 
L 148.285746 -270.134141 
L 148.681285 -270.134141 
L 148.681285 -270.410081 
L 149.076824 -270.410081 
L 149.076824 -270.756149 
L 149.472364 -270.756149 
L 149.472364 -270.823736 
L 153.427756 -270.823736 
L 153.427756 -279.476956 
L 160.943003 -279.476956 
L 160.943003 -279.412926 
L 162.129621 -279.412926 
L 162.129621 -279.415975 
L 165.689474 -279.415975 
L 165.689474 -279.463744 
L 172.018103 -279.463744 
L 172.018103 -279.481022 
L 183.488742 -279.481022 
L 183.488742 -279.462219 
L 189.026292 -279.462219 
L 189.026292 -279.46476 
L 248.752723 -279.46476 
L 248.752723 -279.464252 
L 254.685812 -279.464252 
L 254.685812 -279.471874 
L 255.081352 -279.471874 
L 255.081352 -280.755527 
L 255.87243 -280.755527 
L 255.87243 -289.218181 
L 256.267969 -289.218181 
L 256.267969 -289.248163 
L 260.618901 -289.248163 
L 260.618901 -289.248671 
L 277.627091 -289.248671 
L 277.627091 -289.250196 
L 434.260646 -289.250196 
L 434.260646 -318.175063 
L 679.495 -318.175063 
L 679.495 -319.757523 
L 679.495 -66.907974 
L 679.495 -66.907974 
L 679.495 -66.907974 
L 434.260646 -66.907974 
L 434.260646 -66.907974 
L 277.627091 -66.907974 
L 277.627091 -66.907974 
L 260.618901 -66.907974 
L 260.618901 -66.907974 
L 256.267969 -66.907974 
L 256.267969 -66.907974 
L 255.87243 -66.907974 
L 255.87243 -66.907974 
L 255.081352 -66.907974 
L 255.081352 -66.907974 
L 254.685812 -66.907974 
L 254.685812 -66.907974 
L 248.752723 -66.907974 
L 248.752723 -66.907974 
L 189.026292 -66.907974 
L 189.026292 -66.907974 
L 183.488742 -66.907974 
L 183.488742 -66.907974 
L 172.018103 -66.907974 
L 172.018103 -66.907974 
L 165.689474 -66.907974 
L 165.689474 -66.907974 
L 162.129621 -66.907974 
L 162.129621 -66.907974 
L 160.943003 -66.907974 
L 160.943003 -66.907974 
L 153.427756 -66.907974 
L 153.427756 -66.907974 
L 149.472364 -66.907974 
L 149.472364 -66.907974 
L 149.076824 -66.907974 
L 149.076824 -66.907974 
L 148.681285 -66.907974 
L 148.681285 -66.907974 
L 148.285746 -66.907974 
L 148.285746 -66.907974 
L 147.494667 -66.907974 
L 147.494667 -66.907974 
L 146.308049 -66.907974 
L 146.308049 -66.907974 
L 145.91251 -66.907974 
L 145.91251 -66.907974 
L 144.330353 -66.907974 
L 144.330353 -66.907974 
L 143.539274 -66.907974 
L 143.539274 -66.907974 
L 143.143735 -66.907974 
L 143.143735 -66.907974 
L 142.352656 -66.907974 
L 142.352656 -66.907974 
L 141.957117 -66.907974 
L 141.957117 -66.907974 
L 141.561578 -66.907974 
L 141.561578 -66.907974 
L 140.770499 -66.907974 
L 140.770499 -66.907974 
L 140.37496 -66.907974 
L 140.37496 -66.907974 
L 139.583881 -66.907974 
L 139.583881 -66.907974 
L 139.188342 -66.907974 
L 139.188342 -66.907974 
L 138.792803 -66.907974 
L 138.792803 -66.907974 
L 138.397264 -66.907974 
L 138.397264 -66.907974 
L 138.001724 -66.907974 
L 138.001724 -66.907974 
L 137.606185 -66.907974 
L 137.606185 -66.907974 
L 136.815107 -66.907974 
L 136.815107 -66.907974 
L 136.419567 -66.907974 
L 136.419567 -66.907974 
L 135.628489 -66.907974 
L 135.628489 -66.907974 
L 135.232949 -66.907974 
L 135.232949 -66.907974 
L 134.83741 -66.907974 
L 134.83741 -66.907974 
L 134.441871 -66.907974 
L 134.441871 -66.907974 
L 134.046332 -66.907974 
L 134.046332 -66.907974 
L 133.650792 -66.907974 
L 133.650792 -66.907974 
L 133.255253 -66.907974 
L 133.255253 -66.907974 
L 132.859714 -66.907974 
L 132.859714 -66.907974 
L 132.464174 -66.907974 
L 132.464174 -66.907974 
L 132.068635 -66.907974 
L 132.068635 -66.907974 
L 131.673096 -66.907974 
L 131.673096 -66.907974 
L 130.486478 -66.907974 
L 130.486478 -66.907974 
L 129.695399 -66.907974 
L 129.695399 -66.907974 
L 128.508782 -66.907974 
L 128.508782 -66.907974 
L 128.113242 -66.907974 
L 128.113242 -66.907974 
L 127.717703 -66.907974 
L 127.717703 -66.907974 
L 127.322164 -66.907974 
L 127.322164 -66.907974 
L 125.740007 -66.907974 
L 125.740007 -66.907974 
L 125.344467 -66.907974 
L 125.344467 -66.907974 
L 124.948928 -66.907974 
L 124.948928 -66.907974 
L 124.553389 -66.907974 
L 124.553389 -66.907974 
L 121.389075 -66.907974 
L 121.389075 -66.907974 
L 120.993535 -66.907974 
L 120.993535 -66.907974 
L 119.015839 -66.907974 
L 119.015839 -66.907974 
L 117.433682 -66.907974 
L 117.433682 -66.907974 
L 116.247064 -66.907974 
L 116.247064 -66.907974 
L 115.851525 -66.907974 
L 115.851525 -66.907974 
L 114.664907 -66.907974 
L 114.664907 -66.907974 
L 114.269368 -66.907974 
L 114.269368 -66.907974 
L 113.873828 -66.907974 
L 113.873828 -66.907974 
L 113.478289 -66.907974 
L 113.478289 -66.907974 
L 111.500593 -66.907974 
L 111.500593 -66.907974 
L 111.105053 -66.907974 
L 111.105053 -66.907974 
L 110.709514 -66.907974 
L 110.709514 -66.907974 
L 110.313975 -66.907974 
L 110.313975 -66.907974 
L 89.745932 -66.907974 
L 89.745932 -66.907974 
L 86.186079 -66.907974 
L 86.186079 -66.907974 
L 85.790539 -66.907974 
L 85.790539 -66.907974 
L 85.395 -66.907974 
z
" style="stroke: #00f2ff; stroke-opacity: 0.15"/>
    </defs>
    <g clip-path="url(#pf0b24d3196)">
     <use xlink:href="#m4cafa04700" x="0" y="360" style="fill: #00f2ff; fill-opacity: 0.15; stroke: #00f2ff; stroke-opacity: 0.15"/>
    </g>
   </g>
   <g id="matplotlib.axis_1">
    <g id="xtick_1">
     <g id="line2d_1">
      <path d="M 104.776425 305.734503 
L 104.776425 27.6 
" clip-path="url(#pf0b24d3196)" style="fill: none; stroke-dasharray: 2.96,1.28; stroke-dashoffset: 0; stroke: #ffffff; stroke-opacity: 0.1; stroke-width: 0.8"/>
     </g>
     <g id="line2d_2">
      <defs>
       <path id="m56ddf1e255" d="M 0 0 
L 0 3.5 
" style="stroke: #ffffff; stroke-width: 0.8"/>
      </defs>
      <g>
       <use xlink:href="#m56ddf1e255" x="104.776425" y="305.734503" style="fill: #ffffff; stroke: #ffffff; stroke-width: 0.8"/>
      </g>
     </g>
     <g id="text_1">
      <!-- 2022-01 -->
      <g style="fill: #ffffff" transform="translate(91.955143 347.65232) rotate(-45) scale(0.1 -0.1)">
       <defs>
        <path id="DejaVuSans-32" d="M 1228 531 
L 3431 531 
L 3431 0 
L 469 0 
L 469 531 
Q 828 903 1448 1529 
Q 2069 2156 2228 2338 
Q 2531 2678 2651 2914 
Q 2772 3150 2772 3378 
Q 2772 3750 2511 3984 
Q 2250 4219 1831 4219 
Q 1534 4219 1204 4116 
Q 875 4013 500 3803 
L 500 4441 
Q 881 4594 1212 4672 
Q 1544 4750 1819 4750 
Q 2544 4750 2975 4387 
Q 3406 4025 3406 3419 
Q 3406 3131 3298 2873 
Q 3191 2616 2906 2266 
Q 2828 2175 2409 1742 
Q 1991 1309 1228 531 
z
" transform="scale(0.015625)"/>
        <path id="DejaVuSans-30" d="M 2034 4250 
Q 1547 4250 1301 3770 
Q 1056 3291 1056 2328 
Q 1056 1369 1301 889 
Q 1547 409 2034 409 
Q 2525 409 2770 889 
Q 3016 1369 3016 2328 
Q 3016 3291 2770 3770 
Q 2525 4250 2034 4250 
z
M 2034 4750 
Q 2819 4750 3233 4129 
Q 3647 3509 3647 2328 
Q 3647 1150 3233 529 
Q 2819 -91 2034 -91 
Q 1250 -91 836 529 
Q 422 1150 422 2328 
Q 422 3509 836 4129 
Q 1250 4750 2034 4750 
z
" transform="scale(0.015625)"/>
        <path id="DejaVuSans-2d" d="M 313 2009 
L 1997 2009 
L 1997 1497 
L 313 1497 
L 313 2009 
z
" transform="scale(0.015625)"/>
        <path id="DejaVuSans-31" d="M 794 531 
L 1825 531 
L 1825 4091 
L 703 3866 
L 703 4441 
L 1819 4666 
L 2450 4666 
L 2450 531 
L 3481 531 
L 3481 0 
L 794 0 
L 794 531 
z
" transform="scale(0.015625)"/>
       </defs>
       <use xlink:href="#DejaVuSans-32"/>
       <use xlink:href="#DejaVuSans-30" x="63.623047"/>
       <use xlink:href="#DejaVuSans-32" x="127.246094"/>
       <use xlink:href="#DejaVuSans-32" x="190.869141"/>
       <use xlink:href="#DejaVuSans-2d" x="254.492188"/>
       <use xlink:href="#DejaVuSans-30" x="290.576172"/>
       <use xlink:href="#DejaVuSans-31" x="354.199219"/>
      </g>
     </g>
    </g>
    <g id="xtick_2">
     <g id="line2d_3">
      <path d="M 176.369035 305.734503 
L 176.369035 27.6 
" clip-path="url(#pf0b24d3196)" style="fill: none; stroke-dasharray: 2.96,1.28; stroke-dashoffset: 0; stroke: #ffffff; stroke-opacity: 0.1; stroke-width: 0.8"/>
     </g>
     <g id="line2d_4">
      <g>
       <use xlink:href="#m56ddf1e255" x="176.369035" y="305.734503" style="fill: #ffffff; stroke: #ffffff; stroke-width: 0.8"/>
      </g>
     </g>
     <g id="text_2">
      <!-- 2022-07 -->
      <g style="fill: #ffffff" transform="translate(163.547752 347.65232) rotate(-45) scale(0.1 -0.1)">
       <defs>
        <path id="DejaVuSans-37" d="M 525 4666 
L 3525 4666 
L 3525 4397 
L 1831 0 
L 1172 0 
L 2766 4134 
L 525 4134 
L 525 4666 
z
" transform="scale(0.015625)"/>
       </defs>
       <use xlink:href="#DejaVuSans-32"/>
       <use xlink:href="#DejaVuSans-30" x="63.623047"/>
       <use xlink:href="#DejaVuSans-32" x="127.246094"/>
       <use xlink:href="#DejaVuSans-32" x="190.869141"/>
       <use xlink:href="#DejaVuSans-2d" x="254.492188"/>
       <use xlink:href="#DejaVuSans-30" x="290.576172"/>
       <use xlink:href="#DejaVuSans-37" x="354.199219"/>
      </g>
     </g>
    </g>
    <g id="xtick_3">
     <g id="line2d_5">
      <path d="M 249.148262 305.734503 
L 249.148262 27.6 
" clip-path="url(#pf0b24d3196)" style="fill: none; stroke-dasharray: 2.96,1.28; stroke-dashoffset: 0; stroke: #ffffff; stroke-opacity: 0.1; stroke-width: 0.8"/>
     </g>
     <g id="line2d_6">
      <g>
       <use xlink:href="#m56ddf1e255" x="249.148262" y="305.734503" style="fill: #ffffff; stroke: #ffffff; stroke-width: 0.8"/>
      </g>
     </g>
     <g id="text_3">
      <!-- 2023-01 -->
      <g style="fill: #ffffff" transform="translate(236.32698 347.65232) rotate(-45) scale(0.1 -0.1)">
       <defs>
        <path id="DejaVuSans-33" d="M 2597 2516 
Q 3050 2419 3304 2112 
Q 3559 1806 3559 1356 
Q 3559 666 3084 287 
Q 2609 -91 1734 -91 
Q 1441 -91 1130 -33 
Q 819 25 488 141 
L 488 750 
Q 750 597 1062 519 
Q 1375 441 1716 441 
Q 2309 441 2620 675 
Q 2931 909 2931 1356 
Q 2931 1769 2642 2001 
Q 2353 2234 1838 2234 
L 1294 2234 
L 1294 2753 
L 1863 2753 
Q 2328 2753 2575 2939 
Q 2822 3125 2822 3475 
Q 2822 3834 2567 4026 
Q 2313 4219 1838 4219 
Q 1578 4219 1281 4162 
Q 984 4106 628 3988 
L 628 4550 
Q 988 4650 1302 4700 
Q 1616 4750 1894 4750 
Q 2613 4750 3031 4423 
Q 3450 4097 3450 3541 
Q 3450 3153 3228 2886 
Q 3006 2619 2597 2516 
z
" transform="scale(0.015625)"/>
       </defs>
       <use xlink:href="#DejaVuSans-32"/>
       <use xlink:href="#DejaVuSans-30" x="63.623047"/>
       <use xlink:href="#DejaVuSans-32" x="127.246094"/>
       <use xlink:href="#DejaVuSans-33" x="190.869141"/>
       <use xlink:href="#DejaVuSans-2d" x="254.492188"/>
       <use xlink:href="#DejaVuSans-30" x="290.576172"/>
       <use xlink:href="#DejaVuSans-31" x="354.199219"/>
      </g>
     </g>
    </g>
    <g id="xtick_4">
     <g id="line2d_7">
      <path d="M 320.740872 305.734503 
L 320.740872 27.6 
" clip-path="url(#pf0b24d3196)" style="fill: none; stroke-dasharray: 2.96,1.28; stroke-dashoffset: 0; stroke: #ffffff; stroke-opacity: 0.1; stroke-width: 0.8"/>
     </g>
     <g id="line2d_8">
      <g>
       <use xlink:href="#m56ddf1e255" x="320.740872" y="305.734503" style="fill: #ffffff; stroke: #ffffff; stroke-width: 0.8"/>
      </g>
     </g>
     <g id="text_4">
      <!-- 2023-07 -->
      <g style="fill: #ffffff" transform="translate(307.91959 347.65232) rotate(-45) scale(0.1 -0.1)">
       <use xlink:href="#DejaVuSans-32"/>
       <use xlink:href="#DejaVuSans-30" x="63.623047"/>
       <use xlink:href="#DejaVuSans-32" x="127.246094"/>
       <use xlink:href="#DejaVuSans-33" x="190.869141"/>
       <use xlink:href="#DejaVuSans-2d" x="254.492188"/>
       <use xlink:href="#DejaVuSans-30" x="290.576172"/>
       <use xlink:href="#DejaVuSans-37" x="354.199219"/>
      </g>
     </g>
    </g>
    <g id="xtick_5">
     <g id="line2d_9">
      <path d="M 393.5201 305.734503 
L 393.5201 27.6 
" clip-path="url(#pf0b24d3196)" style="fill: none; stroke-dasharray: 2.96,1.28; stroke-dashoffset: 0; stroke: #ffffff; stroke-opacity: 0.1; stroke-width: 0.8"/>
     </g>
     <g id="line2d_10">
      <g>
       <use xlink:href="#m56ddf1e255" x="393.5201" y="305.734503" style="fill: #ffffff; stroke: #ffffff; stroke-width: 0.8"/>
      </g>
     </g>
     <g id="text_5">
      <!-- 2024-01 -->
      <g style="fill: #ffffff" transform="translate(380.698818 347.65232) rotate(-45) scale(0.1 -0.1)">
       <defs>
        <path id="DejaVuSans-34" d="M 2419 4116 
L 825 1625 
L 2419 1625 
L 2419 4116 
z
M 2253 4666 
L 3047 4666 
L 3047 1625 
L 3713 1625 
L 3713 1100 
L 3047 1100 
L 3047 0 
L 2419 0 
L 2419 1100 
L 313 1100 
L 313 1709 
L 2253 4666 
z
" transform="scale(0.015625)"/>
       </defs>
       <use xlink:href="#DejaVuSans-32"/>
       <use xlink:href="#DejaVuSans-30" x="63.623047"/>
       <use xlink:href="#DejaVuSans-32" x="127.246094"/>
       <use xlink:href="#DejaVuSans-34" x="190.869141"/>
       <use xlink:href="#DejaVuSans-2d" x="254.492188"/>
       <use xlink:href="#DejaVuSans-30" x="290.576172"/>
       <use xlink:href="#DejaVuSans-31" x="354.199219"/>
      </g>
     </g>
    </g>
    <g id="xtick_6">
     <g id="line2d_11">
      <path d="M 465.508249 305.734503 
L 465.508249 27.6 
" clip-path="url(#pf0b24d3196)" style="fill: none; stroke-dasharray: 2.96,1.28; stroke-dashoffset: 0; stroke: #ffffff; stroke-opacity: 0.1; stroke-width: 0.8"/>
     </g>
     <g id="line2d_12">
      <g>
       <use xlink:href="#m56ddf1e255" x="465.508249" y="305.734503" style="fill: #ffffff; stroke: #ffffff; stroke-width: 0.8"/>
      </g>
     </g>
     <g id="text_6">
      <!-- 2024-07 -->
      <g style="fill: #ffffff" transform="translate(452.686967 347.65232) rotate(-45) scale(0.1 -0.1)">
       <use xlink:href="#DejaVuSans-32"/>
       <use xlink:href="#DejaVuSans-30" x="63.623047"/>
       <use xlink:href="#DejaVuSans-32" x="127.246094"/>
       <use xlink:href="#DejaVuSans-34" x="190.869141"/>
       <use xlink:href="#DejaVuSans-2d" x="254.492188"/>
       <use xlink:href="#DejaVuSans-30" x="290.576172"/>
       <use xlink:href="#DejaVuSans-37" x="354.199219"/>
      </g>
     </g>
    </g>
    <g id="xtick_7">
     <g id="line2d_13">
      <path d="M 538.287477 305.734503 
L 538.287477 27.6 
" clip-path="url(#pf0b24d3196)" style="fill: none; stroke-dasharray: 2.96,1.28; stroke-dashoffset: 0; stroke: #ffffff; stroke-opacity: 0.1; stroke-width: 0.8"/>
     </g>
     <g id="line2d_14">
      <g>
       <use xlink:href="#m56ddf1e255" x="538.287477" y="305.734503" style="fill: #ffffff; stroke: #ffffff; stroke-width: 0.8"/>
      </g>
     </g>
     <g id="text_7">
      <!-- 2025-01 -->
      <g style="fill: #ffffff" transform="translate(525.466194 347.65232) rotate(-45) scale(0.1 -0.1)">
       <defs>
        <path id="DejaVuSans-35" d="M 691 4666 
L 3169 4666 
L 3169 4134 
L 1269 4134 
L 1269 2991 
Q 1406 3038 1543 3061 
Q 1681 3084 1819 3084 
Q 2600 3084 3056 2656 
Q 3513 2228 3513 1497 
Q 3513 744 3044 326 
Q 2575 -91 1722 -91 
Q 1428 -91 1123 -41 
Q 819 9 494 109 
L 494 744 
Q 775 591 1075 516 
Q 1375 441 1709 441 
Q 2250 441 2565 725 
Q 2881 1009 2881 1497 
Q 2881 1984 2565 2268 
Q 2250 2553 1709 2553 
Q 1456 2553 1204 2497 
Q 953 2441 691 2322 
L 691 4666 
z
" transform="scale(0.015625)"/>
       </defs>
       <use xlink:href="#DejaVuSans-32"/>
       <use xlink:href="#DejaVuSans-30" x="63.623047"/>
       <use xlink:href="#DejaVuSans-32" x="127.246094"/>
       <use xlink:href="#DejaVuSans-35" x="190.869141"/>
       <use xlink:href="#DejaVuSans-2d" x="254.492188"/>
       <use xlink:href="#DejaVuSans-30" x="290.576172"/>
       <use xlink:href="#DejaVuSans-31" x="354.199219"/>
      </g>
     </g>
    </g>
    <g id="xtick_8">
     <g id="line2d_15">
      <path d="M 609.880087 305.734503 
L 609.880087 27.6 
" clip-path="url(#pf0b24d3196)" style="fill: none; stroke-dasharray: 2.96,1.28; stroke-dashoffset: 0; stroke: #ffffff; stroke-opacity: 0.1; stroke-width: 0.8"/>
     </g>
     <g id="line2d_16">
      <g>
       <use xlink:href="#m56ddf1e255" x="609.880087" y="305.734503" style="fill: #ffffff; stroke: #ffffff; stroke-width: 0.8"/>
      </g>
     </g>
     <g id="text_8">
      <!-- 2025-07 -->
      <g style="fill: #ffffff" transform="translate(597.058804 347.65232) rotate(-45) scale(0.1 -0.1)">
       <use xlink:href="#DejaVuSans-32"/>
       <use xlink:href="#DejaVuSans-30" x="63.623047"/>
       <use xlink:href="#DejaVuSans-32" x="127.246094"/>
       <use xlink:href="#DejaVuSans-35" x="190.869141"/>
       <use xlink:href="#DejaVuSans-2d" x="254.492188"/>
       <use xlink:href="#DejaVuSans-30" x="290.576172"/>
       <use xlink:href="#DejaVuSans-37" x="354.199219"/>
      </g>
     </g>
    </g>
    <g id="xtick_9">
     <g id="line2d_17">
      <path d="M 682.659314 305.734503 
L 682.659314 27.6 
" clip-path="url(#pf0b24d3196)" style="fill: none; stroke-dasharray: 2.96,1.28; stroke-dashoffset: 0; stroke: #ffffff; stroke-opacity: 0.1; stroke-width: 0.8"/>
     </g>
     <g id="line2d_18">
      <g>
       <use xlink:href="#m56ddf1e255" x="682.659314" y="305.734503" style="fill: #ffffff; stroke: #ffffff; stroke-width: 0.8"/>
      </g>
     </g>
     <g id="text_9">
      <!-- 2026-01 -->
      <g style="fill: #ffffff" transform="translate(669.838032 347.65232) rotate(-45) scale(0.1 -0.1)">
       <defs>
        <path id="DejaVuSans-36" d="M 2113 2584 
Q 1688 2584 1439 2293 
Q 1191 2003 1191 1497 
Q 1191 994 1439 701 
Q 1688 409 2113 409 
Q 2538 409 2786 701 
Q 3034 994 3034 1497 
Q 3034 2003 2786 2293 
Q 2538 2584 2113 2584 
z
M 3366 4563 
L 3366 3988 
Q 3128 4100 2886 4159 
Q 2644 4219 2406 4219 
Q 1781 4219 1451 3797 
Q 1122 3375 1075 2522 
Q 1259 2794 1537 2939 
Q 1816 3084 2150 3084 
Q 2853 3084 3261 2657 
Q 3669 2231 3669 1497 
Q 3669 778 3244 343 
Q 2819 -91 2113 -91 
Q 1303 -91 875 529 
Q 447 1150 447 2328 
Q 447 3434 972 4092 
Q 1497 4750 2381 4750 
Q 2619 4750 2861 4703 
Q 3103 4656 3366 4563 
z
" transform="scale(0.015625)"/>
       </defs>
       <use xlink:href="#DejaVuSans-32"/>
       <use xlink:href="#DejaVuSans-30" x="63.623047"/>
       <use xlink:href="#DejaVuSans-32" x="127.246094"/>
       <use xlink:href="#DejaVuSans-36" x="190.869141"/>
       <use xlink:href="#DejaVuSans-2d" x="254.492188"/>
       <use xlink:href="#DejaVuSans-30" x="290.576172"/>
       <use xlink:href="#DejaVuSans-31" x="354.199219"/>
      </g>
     </g>
    </g>
   </g>
   <g id="matplotlib.axis_2">
    <g id="ytick_1">
     <g id="line2d_19">
      <path d="M 55.69 293.092026 
L 709.2 293.092026 
" clip-path="url(#pf0b24d3196)" style="fill: none; stroke-dasharray: 2.96,1.28; stroke-dashoffset: 0; stroke: #ffffff; stroke-opacity: 0.1; stroke-width: 0.8"/>
     </g>
     <g id="line2d_20">
      <defs>
       <path id="m05c27e7a6f" d="M 0 0 
L -3.5 0 
" style="stroke: #ffffff; stroke-width: 0.8"/>
      </defs>
      <g>
       <use xlink:href="#m05c27e7a6f" x="55.69" y="293.092026" style="fill: #ffffff; stroke: #ffffff; stroke-width: 0.8"/>
      </g>
     </g>
     <g id="text_10">
      <!-- 0 -->
      <g style="fill: #ffffff" transform="translate(42.3275 296.891245) scale(0.1 -0.1)">
       <use xlink:href="#DejaVuSans-30"/>
      </g>
     </g>
    </g>
    <g id="ytick_2">
     <g id="line2d_21">
      <path d="M 55.69 242.274431 
L 709.2 242.274431 
" clip-path="url(#pf0b24d3196)" style="fill: none; stroke-dasharray: 2.96,1.28; stroke-dashoffset: 0; stroke: #ffffff; stroke-opacity: 0.1; stroke-width: 0.8"/>
     </g>
     <g id="line2d_22">
      <g>
       <use xlink:href="#m05c27e7a6f" x="55.69" y="242.274431" style="fill: #ffffff; stroke: #ffffff; stroke-width: 0.8"/>
      </g>
     </g>
     <g id="text_11">
      <!-- 100000 -->
      <g style="fill: #ffffff" transform="translate(10.515 246.07365) scale(0.1 -0.1)">
       <use xlink:href="#DejaVuSans-31"/>
       <use xlink:href="#DejaVuSans-30" x="63.623047"/>
       <use xlink:href="#DejaVuSans-30" x="127.246094"/>
       <use xlink:href="#DejaVuSans-30" x="190.869141"/>
       <use xlink:href="#DejaVuSans-30" x="254.492188"/>
       <use xlink:href="#DejaVuSans-30" x="318.115234"/>
      </g>
     </g>
    </g>
    <g id="ytick_3">
     <g id="line2d_23">
      <path d="M 55.69 191.456837 
L 709.2 191.456837 
" clip-path="url(#pf0b24d3196)" style="fill: none; stroke-dasharray: 2.96,1.28; stroke-dashoffset: 0; stroke: #ffffff; stroke-opacity: 0.1; stroke-width: 0.8"/>
     </g>
     <g id="line2d_24">
      <g>
       <use xlink:href="#m05c27e7a6f" x="55.69" y="191.456837" style="fill: #ffffff; stroke: #ffffff; stroke-width: 0.8"/>
      </g>
     </g>
     <g id="text_12">
      <!-- 200000 -->
      <g style="fill: #ffffff" transform="translate(10.515 195.256055) scale(0.1 -0.1)">
       <use xlink:href="#DejaVuSans-32"/>
       <use xlink:href="#DejaVuSans-30" x="63.623047"/>
       <use xlink:href="#DejaVuSans-30" x="127.246094"/>
       <use xlink:href="#DejaVuSans-30" x="190.869141"/>
       <use xlink:href="#DejaVuSans-30" x="254.492188"/>
       <use xlink:href="#DejaVuSans-30" x="318.115234"/>
      </g>
     </g>
    </g>
    <g id="ytick_4">
     <g id="line2d_25">
      <path d="M 55.69 140.639242 
L 709.2 140.639242 
" clip-path="url(#pf0b24d3196)" style="fill: none; stroke-dasharray: 2.96,1.28; stroke-dashoffset: 0; stroke: #ffffff; stroke-opacity: 0.1; stroke-width: 0.8"/>
     </g>
     <g id="line2d_26">
      <g>
       <use xlink:href="#m05c27e7a6f" x="55.69" y="140.639242" style="fill: #ffffff; stroke: #ffffff; stroke-width: 0.8"/>
      </g>
     </g>
     <g id="text_13">
      <!-- 300000 -->
      <g style="fill: #ffffff" transform="translate(10.515 144.438461) scale(0.1 -0.1)">
       <use xlink:href="#DejaVuSans-33"/>
       <use xlink:href="#DejaVuSans-30" x="63.623047"/>
       <use xlink:href="#DejaVuSans-30" x="127.246094"/>
       <use xlink:href="#DejaVuSans-30" x="190.869141"/>
       <use xlink:href="#DejaVuSans-30" x="254.492188"/>
       <use xlink:href="#DejaVuSans-30" x="318.115234"/>
      </g>
     </g>
    </g>
    <g id="ytick_5">
     <g id="line2d_27">
      <path d="M 55.69 89.821647 
L 709.2 89.821647 
" clip-path="url(#pf0b24d3196)" style="fill: none; stroke-dasharray: 2.96,1.28; stroke-dashoffset: 0; stroke: #ffffff; stroke-opacity: 0.1; stroke-width: 0.8"/>
     </g>
     <g id="line2d_28">
      <g>
       <use xlink:href="#m05c27e7a6f" x="55.69" y="89.821647" style="fill: #ffffff; stroke: #ffffff; stroke-width: 0.8"/>
      </g>
     </g>
     <g id="text_14">
      <!-- 400000 -->
      <g style="fill: #ffffff" transform="translate(10.515 93.620866) scale(0.1 -0.1)">
       <use xlink:href="#DejaVuSans-34"/>
       <use xlink:href="#DejaVuSans-30" x="63.623047"/>
       <use xlink:href="#DejaVuSans-30" x="127.246094"/>
       <use xlink:href="#DejaVuSans-30" x="190.869141"/>
       <use xlink:href="#DejaVuSans-30" x="254.492188"/>
       <use xlink:href="#DejaVuSans-30" x="318.115234"/>
      </g>
     </g>
    </g>
    <g id="ytick_6">
     <g id="line2d_29">
      <path d="M 55.69 39.004053 
L 709.2 39.004053 
" clip-path="url(#pf0b24d3196)" style="fill: none; stroke-dasharray: 2.96,1.28; stroke-dashoffset: 0; stroke: #ffffff; stroke-opacity: 0.1; stroke-width: 0.8"/>
     </g>
     <g id="line2d_30">
      <g>
       <use xlink:href="#m05c27e7a6f" x="55.69" y="39.004053" style="fill: #ffffff; stroke: #ffffff; stroke-width: 0.8"/>
      </g>
     </g>
     <g id="text_15">
      <!-- 500000 -->
      <g style="fill: #ffffff" transform="translate(10.515 42.803271) scale(0.1 -0.1)">
       <use xlink:href="#DejaVuSans-35"/>
       <use xlink:href="#DejaVuSans-30" x="63.623047"/>
       <use xlink:href="#DejaVuSans-30" x="127.246094"/>
       <use xlink:href="#DejaVuSans-30" x="190.869141"/>
       <use xlink:href="#DejaVuSans-30" x="254.492188"/>
       <use xlink:href="#DejaVuSans-30" x="318.115234"/>
      </g>
     </g>
    </g>
   </g>
   <g id="line2d_31">
    <path d="M 85.395 135.284084 
L 86.186079 135.203284 
L 86.186079 132.431184 
L 110.313975 132.424578 
L 110.313975 132.314812 
L 111.500593 132.321418 
L 111.500593 128.325631 
L 114.269368 128.282944 
L 114.269368 127.886058 
L 117.433682 127.793062 
L 117.433682 119.66987 
L 121.389075 119.588562 
L 121.389075 119.557055 
L 124.553389 119.557055 
L 124.553389 95.558954 
L 125.344467 95.562511 
L 125.344467 95.398878 
L 129.695399 95.289112 
L 129.695399 95.137168 
L 130.486478 95.137168 
L 130.486478 94.299694 
L 131.673096 94.299694 
L 131.673096 94.136061 
L 132.068635 94.136061 
L 132.068635 91.283161 
L 133.255253 91.219639 
L 133.255253 91.084465 
L 134.83741 91.050925 
L 134.83741 90.878653 
L 138.397264 90.791755 
L 138.397264 90.736872 
L 140.37496 90.736872 
L 140.37496 90.610336 
L 143.143735 90.500062 
L 143.143735 90.407574 
L 144.330353 90.370985 
L 144.330353 90.128586 
L 146.308049 90.02695 
L 146.308049 89.943101 
L 148.681285 89.865859 
L 148.681285 89.589919 
L 149.076824 89.589919 
L 149.076824 89.243851 
L 153.427756 89.176264 
L 153.427756 80.523044 
L 255.081352 80.528126 
L 255.081352 79.244473 
L 255.87243 79.244473 
L 255.87243 70.781819 
L 434.260646 70.749804 
L 434.260646 41.824937 
L 679.495 41.824937 
L 679.495 40.242477 
L 679.495 40.242477 
" clip-path="url(#pf0b24d3196)" style="fill: none; stroke: #00f2ff; stroke-width: 2; stroke-linecap: square"/>
   </g>
   <g id="text_16">
    <!-- Lines of Code (SLOC): hooyuser/TextureNodes -->
    <g style="fill: #ffffff" transform="translate(201.545312 21.6) scale(0.14 -0.14)">
     <defs>
      <path id="DejaVuSans-Bold-4c" d="M 588 4666 
L 1791 4666 
L 1791 909 
L 3903 909 
L 3903 0 
L 588 0 
L 588 4666 
z
" transform="scale(0.015625)"/>
      <path id="DejaVuSans-Bold-69" d="M 538 3500 
L 1656 3500 
L 1656 0 
L 538 0 
L 538 3500 
z
M 538 4863 
L 1656 4863 
L 1656 3950 
L 538 3950 
L 538 4863 
z
" transform="scale(0.015625)"/>
      <path id="DejaVuSans-Bold-6e" d="M 4056 2131 
L 4056 0 
L 2931 0 
L 2931 347 
L 2931 1631 
Q 2931 2084 2911 2256 
Q 2891 2428 2841 2509 
Q 2775 2619 2662 2680 
Q 2550 2741 2406 2741 
Q 2056 2741 1856 2470 
Q 1656 2200 1656 1722 
L 1656 0 
L 538 0 
L 538 3500 
L 1656 3500 
L 1656 2988 
Q 1909 3294 2193 3439 
Q 2478 3584 2822 3584 
Q 3428 3584 3742 3212 
Q 4056 2841 4056 2131 
z
" transform="scale(0.015625)"/>
      <path id="DejaVuSans-Bold-65" d="M 4031 1759 
L 4031 1441 
L 1416 1441 
Q 1456 1047 1700 850 
Q 1944 653 2381 653 
Q 2734 653 3104 758 
Q 3475 863 3866 1075 
L 3866 213 
Q 3469 63 3072 -14 
Q 2675 -91 2278 -91 
Q 1328 -91 801 392 
Q 275 875 275 1747 
Q 275 2603 792 3093 
Q 1309 3584 2216 3584 
Q 3041 3584 3536 3087 
Q 4031 2591 4031 1759 
z
M 2881 2131 
Q 2881 2450 2695 2645 
Q 2509 2841 2209 2841 
Q 1884 2841 1681 2658 
Q 1478 2475 1428 2131 
L 2881 2131 
z
" transform="scale(0.015625)"/>
      <path id="DejaVuSans-Bold-73" d="M 3272 3391 
L 3272 2541 
Q 2913 2691 2578 2766 
Q 2244 2841 1947 2841 
Q 1628 2841 1473 2761 
Q 1319 2681 1319 2516 
Q 1319 2381 1436 2309 
Q 1553 2238 1856 2203 
L 2053 2175 
Q 2913 2066 3209 1816 
Q 3506 1566 3506 1031 
Q 3506 472 3093 190 
Q 2681 -91 1863 -91 
Q 1516 -91 1145 -36 
Q 775 19 384 128 
L 384 978 
Q 719 816 1070 734 
Q 1422 653 1784 653 
Q 2113 653 2278 743 
Q 2444 834 2444 1013 
Q 2444 1163 2330 1236 
Q 2216 1309 1875 1350 
L 1678 1375 
Q 931 1469 631 1722 
Q 331 1975 331 2491 
Q 331 3047 712 3315 
Q 1094 3584 1881 3584 
Q 2191 3584 2531 3537 
Q 2872 3491 3272 3391 
z
" transform="scale(0.015625)"/>
      <path id="DejaVuSans-Bold-20" transform="scale(0.015625)"/>
      <path id="DejaVuSans-Bold-6f" d="M 2203 2784 
Q 1831 2784 1636 2517 
Q 1441 2250 1441 1747 
Q 1441 1244 1636 976 
Q 1831 709 2203 709 
Q 2569 709 2762 976 
Q 2956 1244 2956 1747 
Q 2956 2250 2762 2517 
Q 2569 2784 2203 2784 
z
M 2203 3584 
Q 3106 3584 3614 3096 
Q 4122 2609 4122 1747 
Q 4122 884 3614 396 
Q 3106 -91 2203 -91 
Q 1297 -91 786 396 
Q 275 884 275 1747 
Q 275 2609 786 3096 
Q 1297 3584 2203 3584 
z
" transform="scale(0.015625)"/>
      <path id="DejaVuSans-Bold-66" d="M 2841 4863 
L 2841 4128 
L 2222 4128 
Q 1984 4128 1890 4042 
Q 1797 3956 1797 3744 
L 1797 3500 
L 2753 3500 
L 2753 2700 
L 1797 2700 
L 1797 0 
L 678 0 
L 678 2700 
L 122 2700 
L 122 3500 
L 678 3500 
L 678 3744 
Q 678 4316 997 4589 
Q 1316 4863 1984 4863 
L 2841 4863 
z
" transform="scale(0.015625)"/>
      <path id="DejaVuSans-Bold-43" d="M 4288 256 
Q 3956 84 3597 -3 
Q 3238 -91 2847 -91 
Q 1681 -91 1000 561 
Q 319 1213 319 2328 
Q 319 3447 1000 4098 
Q 1681 4750 2847 4750 
Q 3238 4750 3597 4662 
Q 3956 4575 4288 4403 
L 4288 3438 
Q 3953 3666 3628 3772 
Q 3303 3878 2944 3878 
Q 2300 3878 1931 3465 
Q 1563 3053 1563 2328 
Q 1563 1606 1931 1193 
Q 2300 781 2944 781 
Q 3303 781 3628 887 
Q 3953 994 4288 1222 
L 4288 256 
z
" transform="scale(0.015625)"/>
      <path id="DejaVuSans-Bold-64" d="M 2919 2988 
L 2919 4863 
L 4044 4863 
L 4044 0 
L 2919 0 
L 2919 506 
Q 2688 197 2409 53 
Q 2131 -91 1766 -91 
Q 1119 -91 703 423 
Q 288 938 288 1747 
Q 288 2556 703 3070 
Q 1119 3584 1766 3584 
Q 2128 3584 2408 3439 
Q 2688 3294 2919 2988 
z
M 2181 722 
Q 2541 722 2730 984 
Q 2919 1247 2919 1747 
Q 2919 2247 2730 2509 
Q 2541 2772 2181 2772 
Q 1825 2772 1636 2509 
Q 1447 2247 1447 1747 
Q 1447 1247 1636 984 
Q 1825 722 2181 722 
z
" transform="scale(0.015625)"/>
      <path id="DejaVuSans-Bold-28" d="M 2413 -844 
L 1484 -844 
Q 1006 -72 778 623 
Q 550 1319 550 2003 
Q 550 2688 779 3389 
Q 1009 4091 1484 4856 
L 2413 4856 
Q 2013 4116 1813 3408 
Q 1613 2700 1613 2009 
Q 1613 1319 1811 609 
Q 2009 -100 2413 -844 
z
" transform="scale(0.015625)"/>
      <path id="DejaVuSans-Bold-53" d="M 3834 4519 
L 3834 3531 
Q 3450 3703 3084 3790 
Q 2719 3878 2394 3878 
Q 1963 3878 1756 3759 
Q 1550 3641 1550 3391 
Q 1550 3203 1689 3098 
Q 1828 2994 2194 2919 
L 2706 2816 
Q 3484 2659 3812 2340 
Q 4141 2022 4141 1434 
Q 4141 663 3683 286 
Q 3225 -91 2284 -91 
Q 1841 -91 1394 -6 
Q 947 78 500 244 
L 500 1259 
Q 947 1022 1364 901 
Q 1781 781 2169 781 
Q 2563 781 2772 912 
Q 2981 1044 2981 1288 
Q 2981 1506 2839 1625 
Q 2697 1744 2272 1838 
L 1806 1941 
Q 1106 2091 782 2419 
Q 459 2747 459 3303 
Q 459 4000 909 4375 
Q 1359 4750 2203 4750 
Q 2588 4750 2994 4692 
Q 3400 4634 3834 4519 
z
" transform="scale(0.015625)"/>
      <path id="DejaVuSans-Bold-4f" d="M 2719 3878 
Q 2169 3878 1866 3472 
Q 1563 3066 1563 2328 
Q 1563 1594 1866 1187 
Q 2169 781 2719 781 
Q 3272 781 3575 1187 
Q 3878 1594 3878 2328 
Q 3878 3066 3575 3472 
Q 3272 3878 2719 3878 
z
M 2719 4750 
Q 3844 4750 4481 4106 
Q 5119 3463 5119 2328 
Q 5119 1197 4481 553 
Q 3844 -91 2719 -91 
Q 1597 -91 958 553 
Q 319 1197 319 2328 
Q 319 3463 958 4106 
Q 1597 4750 2719 4750 
z
" transform="scale(0.015625)"/>
      <path id="DejaVuSans-Bold-29" d="M 513 -844 
Q 913 -100 1113 609 
Q 1313 1319 1313 2009 
Q 1313 2700 1113 3408 
Q 913 4116 513 4856 
L 1441 4856 
Q 1916 4091 2145 3389 
Q 2375 2688 2375 2003 
Q 2375 1319 2147 623 
Q 1919 -72 1441 -844 
L 513 -844 
z
" transform="scale(0.015625)"/>
      <path id="DejaVuSans-Bold-3a" d="M 716 3500 
L 1844 3500 
L 1844 2291 
L 716 2291 
L 716 3500 
z
M 716 1209 
L 1844 1209 
L 1844 0 
L 716 0 
L 716 1209 
z
" transform="scale(0.015625)"/>
      <path id="DejaVuSans-Bold-68" d="M 4056 2131 
L 4056 0 
L 2931 0 
L 2931 347 
L 2931 1625 
Q 2931 2084 2911 2256 
Q 2891 2428 2841 2509 
Q 2775 2619 2662 2680 
Q 2550 2741 2406 2741 
Q 2056 2741 1856 2470 
Q 1656 2200 1656 1722 
L 1656 0 
L 538 0 
L 538 4863 
L 1656 4863 
L 1656 2988 
Q 1909 3294 2193 3439 
Q 2478 3584 2822 3584 
Q 3428 3584 3742 3212 
Q 4056 2841 4056 2131 
z
" transform="scale(0.015625)"/>
      <path id="DejaVuSans-Bold-79" d="M 78 3500 
L 1197 3500 
L 2138 1125 
L 2938 3500 
L 4056 3500 
L 2584 -331 
Q 2363 -916 2067 -1148 
Q 1772 -1381 1288 -1381 
L 641 -1381 
L 641 -647 
L 991 -647 
Q 1275 -647 1404 -556 
Q 1534 -466 1606 -231 
L 1638 -134 
L 78 3500 
z
" transform="scale(0.015625)"/>
      <path id="DejaVuSans-Bold-75" d="M 500 1363 
L 500 3500 
L 1625 3500 
L 1625 3150 
Q 1625 2866 1622 2436 
Q 1619 2006 1619 1863 
Q 1619 1441 1641 1255 
Q 1663 1069 1716 984 
Q 1784 875 1895 815 
Q 2006 756 2150 756 
Q 2500 756 2700 1025 
Q 2900 1294 2900 1772 
L 2900 3500 
L 4019 3500 
L 4019 0 
L 2900 0 
L 2900 506 
Q 2647 200 2364 54 
Q 2081 -91 1741 -91 
Q 1134 -91 817 281 
Q 500 653 500 1363 
z
" transform="scale(0.015625)"/>
      <path id="DejaVuSans-Bold-72" d="M 3138 2547 
Q 2991 2616 2845 2648 
Q 2700 2681 2553 2681 
Q 2122 2681 1889 2404 
Q 1656 2128 1656 1613 
L 1656 0 
L 538 0 
L 538 3500 
L 1656 3500 
L 1656 2925 
Q 1872 3269 2151 3426 
Q 2431 3584 2822 3584 
Q 2878 3584 2943 3579 
Q 3009 3575 3134 3559 
L 3138 2547 
z
" transform="scale(0.015625)"/>
      <path id="DejaVuSans-Bold-2f" d="M 1644 4666 
L 2338 4666 
L 691 -594 
L 0 -594 
L 1644 4666 
z
" transform="scale(0.015625)"/>
      <path id="DejaVuSans-Bold-54" d="M 31 4666 
L 4331 4666 
L 4331 3756 
L 2784 3756 
L 2784 0 
L 1581 0 
L 1581 3756 
L 31 3756 
L 31 4666 
z
" transform="scale(0.015625)"/>
      <path id="DejaVuSans-Bold-78" d="M 1422 1791 
L 159 3500 
L 1344 3500 
L 2059 2463 
L 2784 3500 
L 3969 3500 
L 2706 1797 
L 4031 0 
L 2847 0 
L 2059 1106 
L 1281 0 
L 97 0 
L 1422 1791 
z
" transform="scale(0.015625)"/>
      <path id="DejaVuSans-Bold-74" d="M 1759 4494 
L 1759 3500 
L 2913 3500 
L 2913 2700 
L 1759 2700 
L 1759 1216 
Q 1759 972 1856 886 
Q 1953 800 2241 800 
L 2816 800 
L 2816 0 
L 1856 0 
Q 1194 0 917 276 
Q 641 553 641 1216 
L 641 2700 
L 84 2700 
L 84 3500 
L 641 3500 
L 641 4494 
L 1759 4494 
z
" transform="scale(0.015625)"/>
      <path id="DejaVuSans-Bold-4e" d="M 588 4666 
L 1931 4666 
L 3628 1466 
L 3628 4666 
L 4769 4666 
L 4769 0 
L 3425 0 
L 1728 3200 
L 1728 0 
L 588 0 
L 588 4666 
z
" transform="scale(0.015625)"/>
     </defs>
     <use xlink:href="#DejaVuSans-Bold-4c"/>
     <use xlink:href="#DejaVuSans-Bold-69" x="63.720703"/>
     <use xlink:href="#DejaVuSans-Bold-6e" x="97.998047"/>
     <use xlink:href="#DejaVuSans-Bold-65" x="169.189453"/>
     <use xlink:href="#DejaVuSans-Bold-73" x="237.011719"/>
     <use xlink:href="#DejaVuSans-Bold-20" x="296.533203"/>
     <use xlink:href="#DejaVuSans-Bold-6f" x="331.347656"/>
     <use xlink:href="#DejaVuSans-Bold-66" x="400.048828"/>
     <use xlink:href="#DejaVuSans-Bold-20" x="443.554688"/>
     <use xlink:href="#DejaVuSans-Bold-43" x="478.369141"/>
     <use xlink:href="#DejaVuSans-Bold-6f" x="551.757812"/>
     <use xlink:href="#DejaVuSans-Bold-64" x="620.458984"/>
     <use xlink:href="#DejaVuSans-Bold-65" x="692.041016"/>
     <use xlink:href="#DejaVuSans-Bold-20" x="759.863281"/>
     <use xlink:href="#DejaVuSans-Bold-28" x="794.677734"/>
     <use xlink:href="#DejaVuSans-Bold-53" x="840.380859"/>
     <use xlink:href="#DejaVuSans-Bold-4c" x="912.402344"/>
     <use xlink:href="#DejaVuSans-Bold-4f" x="972.498047"/>
     <use xlink:href="#DejaVuSans-Bold-43" x="1057.507812"/>
     <use xlink:href="#DejaVuSans-Bold-29" x="1130.896484"/>
     <use xlink:href="#DejaVuSans-Bold-3a" x="1176.599609"/>
     <use xlink:href="#DejaVuSans-Bold-20" x="1216.589844"/>
     <use xlink:href="#DejaVuSans-Bold-68" x="1251.404297"/>
     <use xlink:href="#DejaVuSans-Bold-6f" x="1322.595703"/>
     <use xlink:href="#DejaVuSans-Bold-6f" x="1391.296875"/>
     <use xlink:href="#DejaVuSans-Bold-79" x="1459.998047"/>
     <use xlink:href="#DejaVuSans-Bold-75" x="1525.183594"/>
     <use xlink:href="#DejaVuSans-Bold-73" x="1596.375"/>
     <use xlink:href="#DejaVuSans-Bold-65" x="1655.896484"/>
     <use xlink:href="#DejaVuSans-Bold-72" x="1723.71875"/>
     <use xlink:href="#DejaVuSans-Bold-2f" x="1773.035156"/>
     <use xlink:href="#DejaVuSans-Bold-54" x="1809.558594"/>
     <use xlink:href="#DejaVuSans-Bold-65" x="1864.521484"/>
     <use xlink:href="#DejaVuSans-Bold-78" x="1932.34375"/>
     <use xlink:href="#DejaVuSans-Bold-74" x="1996.845703"/>
     <use xlink:href="#DejaVuSans-Bold-75" x="2044.648438"/>
     <use xlink:href="#DejaVuSans-Bold-72" x="2115.839844"/>
     <use xlink:href="#DejaVuSans-Bold-65" x="2165.15625"/>
     <use xlink:href="#DejaVuSans-Bold-4e" x="2232.978516"/>
     <use xlink:href="#DejaVuSans-Bold-6f" x="2316.669922"/>
     <use xlink:href="#DejaVuSans-Bold-64" x="2385.371094"/>
     <use xlink:href="#DejaVuSans-Bold-65" x="2456.953125"/>
     <use xlink:href="#DejaVuSans-Bold-73" x="2524.775391"/>
    </g>
   </g>
  </g>
 </g>
 <defs>
  <clipPath id="pf0b24d3196">
   <rect x="55.69" y="27.6" width="653.51" height="278.134503"/>
  </clipPath>
 </defs>
</svg>
