<?xml version="1.0" encoding="utf-8" standalone="no"?>
<!DOCTYPE svg PUBLIC "-//W3C//DTD SVG 1.1//EN"
  "http://www.w3.org/Graphics/SVG/1.1/DTD/svg11.dtd">
<svg xmlns:xlink="http://www.w3.org/1999/xlink" width="720pt" height="360pt" viewBox="0 0 720 360" xmlns="http://www.w3.org/2000/svg" version="1.1">
 <metadata>
  <rdf:RDF xmlns:dc="http://purl.org/dc/elements/1.1/" xmlns:cc="http://creativecommons.org/ns#" xmlns:rdf="http://www.w3.org/1999/02/22-rdf-syntax-ns#">
   <cc:Work>
    <dc:type rdf:resource="http://purl.org/dc/dcmitype/StillImage"/>
    <dc:date>2026-05-05T00:54:12.460784</dc:date>
    <dc:format>image/svg+xml</dc:format>
    <dc:creator>
     <cc:Agent>
      <dc:title>Matplotlib v3.9.4, https://matplotlib.org/</dc:title>
     </cc:Agent>
    </dc:creator>
   </cc:Work>
  </rdf:RDF>
 </metadata>
 <defs>
  <style type="text/css">*{stroke-linejoin: round; stroke-linecap: butt}</style>
 </defs>
 <g id="figure_1">
  <g id="patch_1">
   <path d="M 0 360 
L 720 360 
L 720 0 
L 0 0 
z
" style="fill: #0d1117"/>
  </g>
  <g id="axes_1">
   <g id="patch_2">
    <path d="M 43.09 305.734503 
L 709.2 305.734503 
L 709.2 27.6 
L 43.09 27.6 
z
" style="fill: #0d1117"/>
   </g>
   <g id="PolyCollection_1">
    <defs>
     <path id="md962f8a92e" d="M 73.367727 -66.907974 
L 73.367727 -94.863875 
L 132.483573 -94.863875 
L 132.483573 -97.22321 
L 229.580584 -97.22321 
L 229.580584 -90.18972 
L 235.093979 -90.18972 
L 235.093979 -96.332895 
L 235.706579 -96.332895 
L 235.706579 -97.712884 
L 251.021565 -97.712884 
L 251.021565 -106.838616 
L 307.380713 -106.838616 
L 307.380713 -113.783075 
L 307.687013 -113.783075 
L 307.687013 -120.950114 
L 307.993312 -120.950114 
L 307.993312 -124.644922 
L 327.596494 -124.644922 
L 327.596494 -128.02812 
L 334.947688 -128.02812 
L 334.947688 -128.918436 
L 347.505976 -128.918436 
L 347.505976 -132.746791 
L 347.812276 -132.746791 
L 347.812276 -134.12678 
L 355.776069 -134.12678 
L 355.776069 -134.482906 
L 367.721758 -134.482906 
L 367.721758 -134.705485 
L 368.028057 -134.705485 
L 368.028057 -136.975789 
L 370.478455 -136.975789 
L 370.478455 -138.622872 
L 370.784755 -138.622872 
L 370.784755 -171.297444 
L 371.091055 -171.297444 
L 371.091055 -172.321307 
L 371.397354 -172.321307 
L 371.397354 -175.9716 
L 371.703654 -175.9716 
L 371.703654 -179.621893 
L 372.009954 -179.621893 
L 372.009954 -182.916059 
L 372.316254 -182.916059 
L 372.316254 -183.85089 
L 372.928853 -183.85089 
L 372.928853 -186.254742 
L 374.460352 -186.254742 
L 374.460352 -190.661802 
L 415.198214 -190.661802 
L 415.198214 -196.715947 
L 441.53999 -196.715947 
L 441.53999 -201.790744 
L 445.215587 -201.790744 
L 445.215587 -206.642962 
L 452.56678 -206.642962 
L 452.56678 -206.77651 
L 459.611674 -206.77651 
L 459.611674 -209.40294 
L 481.665253 -209.40294 
L 481.665253 -216.12482 
L 489.629046 -216.12482 
L 489.629046 -222.980248 
L 490.241646 -222.980248 
L 490.241646 -226.85312 
L 497.286539 -226.85312 
L 497.286539 -235.311115 
L 504.637732 -235.311115 
L 504.637732 -247.552951 
L 507.39443 -247.552951 
L 507.39443 -248.754876 
L 526.385012 -248.754876 
L 526.385012 -256.144494 
L 528.83541 -256.144494 
L 528.83541 -264.37991 
L 553.033088 -264.37991 
L 553.033088 -272.303716 
L 560.384281 -272.303716 
L 560.384281 -277.289482 
L 591.320553 -277.289482 
L 591.320553 -282.631374 
L 591.626853 -282.631374 
L 591.626853 -284.946194 
L 592.239452 -284.946194 
L 592.239452 -293.359674 
L 592.852052 -293.359674 
L 592.852052 -295.49643 
L 602.347343 -295.49643 
L 602.347343 -303.197658 
L 678.922273 -303.197658 
L 678.922273 -319.757523 
L 678.922273 -66.907974 
L 678.922273 -66.907974 
L 678.922273 -66.907974 
L 602.347343 -66.907974 
L 602.347343 -66.907974 
L 592.852052 -66.907974 
L 592.852052 -66.907974 
L 592.239452 -66.907974 
L 592.239452 -66.907974 
L 591.626853 -66.907974 
L 591.626853 -66.907974 
L 591.320553 -66.907974 
L 591.320553 -66.907974 
L 560.384281 -66.907974 
L 560.384281 -66.907974 
L 553.033088 -66.907974 
L 553.033088 -66.907974 
L 528.83541 -66.907974 
L 528.83541 -66.907974 
L 526.385012 -66.907974 
L 526.385012 -66.907974 
L 507.39443 -66.907974 
L 507.39443 -66.907974 
L 504.637732 -66.907974 
L 504.637732 -66.907974 
L 497.286539 -66.907974 
L 497.286539 -66.907974 
L 490.241646 -66.907974 
L 490.241646 -66.907974 
L 489.629046 -66.907974 
L 489.629046 -66.907974 
L 481.665253 -66.907974 
L 481.665253 -66.907974 
L 459.611674 -66.907974 
L 459.611674 -66.907974 
L 452.56678 -66.907974 
L 452.56678 -66.907974 
L 445.215587 -66.907974 
L 445.215587 -66.907974 
L 441.53999 -66.907974 
L 441.53999 -66.907974 
L 415.198214 -66.907974 
L 415.198214 -66.907974 
L 374.460352 -66.907974 
L 374.460352 -66.907974 
L 372.928853 -66.907974 
L 372.928853 -66.907974 
L 372.316254 -66.907974 
L 372.316254 -66.907974 
L 372.009954 -66.907974 
L 372.009954 -66.907974 
L 371.703654 -66.907974 
L 371.703654 -66.907974 
L 371.397354 -66.907974 
L 371.397354 -66.907974 
L 371.091055 -66.907974 
L 371.091055 -66.907974 
L 370.784755 -66.907974 
L 370.784755 -66.907974 
L 370.478455 -66.907974 
L 370.478455 -66.907974 
L 368.028057 -66.907974 
L 368.028057 -66.907974 
L 367.721758 -66.907974 
L 367.721758 -66.907974 
L 355.776069 -66.907974 
L 355.776069 -66.907974 
L 347.812276 -66.907974 
L 347.812276 -66.907974 
L 347.505976 -66.907974 
L 347.505976 -66.907974 
L 334.947688 -66.907974 
L 334.947688 -66.907974 
L 327.596494 -66.907974 
L 327.596494 -66.907974 
L 307.993312 -66.907974 
L 307.993312 -66.907974 
L 307.687013 -66.907974 
L 307.687013 -66.907974 
L 307.380713 -66.907974 
L 307.380713 -66.907974 
L 251.021565 -66.907974 
L 251.021565 -66.907974 
L 235.706579 -66.907974 
L 235.706579 -66.907974 
L 235.093979 -66.907974 
L 235.093979 -66.907974 
L 229.580584 -66.907974 
L 229.580584 -66.907974 
L 132.483573 -66.907974 
L 132.483573 -66.907974 
L 73.367727 -66.907974 
z
" style="stroke: #00f2ff; stroke-opacity: 0.15"/>
    </defs>
    <g clip-path="url(#pc1fb584af9)">
     <use xlink:href="#md962f8a92e" x="0" y="360" style="fill: #00f2ff; fill-opacity: 0.15; stroke: #00f2ff; stroke-opacity: 0.15"/>
    </g>
   </g>
   <g id="matplotlib.axis_1">
    <g id="xtick_1">
     <g id="line2d_1">
      <path d="M 81.944119 305.734503 
L 81.944119 27.6 
" clip-path="url(#pc1fb584af9)" style="fill: none; stroke-dasharray: 2.96,1.28; stroke-dashoffset: 0; stroke: #ffffff; stroke-opacity: 0.1; stroke-width: 0.8"/>
     </g>
     <g id="line2d_2">
      <defs>
       <path id="m7fbca3304d" d="M 0 0 
L 0 3.5 
" style="stroke: #ffffff; stroke-width: 0.8"/>
      </defs>
      <g>
       <use xlink:href="#m7fbca3304d" x="81.944119" y="305.734503" style="fill: #ffffff; stroke: #ffffff; stroke-width: 0.8"/>
      </g>
     </g>
     <g id="text_1">
      <!-- 2021-01 -->
      <g style="fill: #ffffff" transform="translate(69.122837 347.65232) rotate(-45) scale(0.1 -0.1)">
       <defs>
        <path id="DejaVuSans-32" d="M 1228 531 
L 3431 531 
L 3431 0 
L 469 0 
L 469 531 
Q 828 903 1448 1529 
Q 2069 2156 2228 2338 
Q 2531 2678 2651 2914 
Q 2772 3150 2772 3378 
Q 2772 3750 2511 3984 
Q 2250 4219 1831 4219 
Q 1534 4219 1204 4116 
Q 875 4013 500 3803 
L 500 4441 
Q 881 4594 1212 4672 
Q 1544 4750 1819 4750 
Q 2544 4750 2975 4387 
Q 3406 4025 3406 3419 
Q 3406 3131 3298 2873 
Q 3191 2616 2906 2266 
Q 2828 2175 2409 1742 
Q 1991 1309 1228 531 
z
" transform="scale(0.015625)"/>
        <path id="DejaVuSans-30" d="M 2034 4250 
Q 1547 4250 1301 3770 
Q 1056 3291 1056 2328 
Q 1056 1369 1301 889 
Q 1547 409 2034 409 
Q 2525 409 2770 889 
Q 3016 1369 3016 2328 
Q 3016 3291 2770 3770 
Q 2525 4250 2034 4250 
z
M 2034 4750 
Q 2819 4750 3233 4129 
Q 3647 3509 3647 2328 
Q 3647 1150 3233 529 
Q 2819 -91 2034 -91 
Q 1250 -91 836 529 
Q 422 1150 422 2328 
Q 422 3509 836 4129 
Q 1250 4750 2034 4750 
z
" transform="scale(0.015625)"/>
        <path id="DejaVuSans-31" d="M 794 531 
L 1825 531 
L 1825 4091 
L 703 3866 
L 703 4441 
L 1819 4666 
L 2450 4666 
L 2450 531 
L 3481 531 
L 3481 0 
L 794 0 
L 794 531 
z
" transform="scale(0.015625)"/>
        <path id="DejaVuSans-2d" d="M 313 2009 
L 1997 2009 
L 1997 1497 
L 313 1497 
L 313 2009 
z
" transform="scale(0.015625)"/>
       </defs>
       <use xlink:href="#DejaVuSans-32"/>
       <use xlink:href="#DejaVuSans-30" x="63.623047"/>
       <use xlink:href="#DejaVuSans-32" x="127.246094"/>
       <use xlink:href="#DejaVuSans-31" x="190.869141"/>
       <use xlink:href="#DejaVuSans-2d" x="254.492188"/>
       <use xlink:href="#DejaVuSans-30" x="290.576172"/>
       <use xlink:href="#DejaVuSans-31" x="354.199219"/>
      </g>
     </g>
    </g>
    <g id="xtick_2">
     <g id="line2d_3">
      <path d="M 193.743517 305.734503 
L 193.743517 27.6 
" clip-path="url(#pc1fb584af9)" style="fill: none; stroke-dasharray: 2.96,1.28; stroke-dashoffset: 0; stroke: #ffffff; stroke-opacity: 0.1; stroke-width: 0.8"/>
     </g>
     <g id="line2d_4">
      <g>
       <use xlink:href="#m7fbca3304d" x="193.743517" y="305.734503" style="fill: #ffffff; stroke: #ffffff; stroke-width: 0.8"/>
      </g>
     </g>
     <g id="text_2">
      <!-- 2022-01 -->
      <g style="fill: #ffffff" transform="translate(180.922235 347.65232) rotate(-45) scale(0.1 -0.1)">
       <use xlink:href="#DejaVuSans-32"/>
       <use xlink:href="#DejaVuSans-30" x="63.623047"/>
       <use xlink:href="#DejaVuSans-32" x="127.246094"/>
       <use xlink:href="#DejaVuSans-32" x="190.869141"/>
       <use xlink:href="#DejaVuSans-2d" x="254.492188"/>
       <use xlink:href="#DejaVuSans-30" x="290.576172"/>
       <use xlink:href="#DejaVuSans-31" x="354.199219"/>
      </g>
     </g>
    </g>
    <g id="xtick_3">
     <g id="line2d_5">
      <path d="M 305.542915 305.734503 
L 305.542915 27.6 
" clip-path="url(#pc1fb584af9)" style="fill: none; stroke-dasharray: 2.96,1.28; stroke-dashoffset: 0; stroke: #ffffff; stroke-opacity: 0.1; stroke-width: 0.8"/>
     </g>
     <g id="line2d_6">
      <g>
       <use xlink:href="#m7fbca3304d" x="305.542915" y="305.734503" style="fill: #ffffff; stroke: #ffffff; stroke-width: 0.8"/>
      </g>
     </g>
     <g id="text_3">
      <!-- 2023-01 -->
      <g style="fill: #ffffff" transform="translate(292.721632 347.65232) rotate(-45) scale(0.1 -0.1)">
       <defs>
        <path id="DejaVuSans-33" d="M 2597 2516 
Q 3050 2419 3304 2112 
Q 3559 1806 3559 1356 
Q 3559 666 3084 287 
Q 2609 -91 1734 -91 
Q 1441 -91 1130 -33 
Q 819 25 488 141 
L 488 750 
Q 750 597 1062 519 
Q 1375 441 1716 441 
Q 2309 441 2620 675 
Q 2931 909 2931 1356 
Q 2931 1769 2642 2001 
Q 2353 2234 1838 2234 
L 1294 2234 
L 1294 2753 
L 1863 2753 
Q 2328 2753 2575 2939 
Q 2822 3125 2822 3475 
Q 2822 3834 2567 4026 
Q 2313 4219 1838 4219 
Q 1578 4219 1281 4162 
Q 984 4106 628 3988 
L 628 4550 
Q 988 4650 1302 4700 
Q 1616 4750 1894 4750 
Q 2613 4750 3031 4423 
Q 3450 4097 3450 3541 
Q 3450 3153 3228 2886 
Q 3006 2619 2597 2516 
z
" transform="scale(0.015625)"/>
       </defs>
       <use xlink:href="#DejaVuSans-32"/>
       <use xlink:href="#DejaVuSans-30" x="63.623047"/>
       <use xlink:href="#DejaVuSans-32" x="127.246094"/>
       <use xlink:href="#DejaVuSans-33" x="190.869141"/>
       <use xlink:href="#DejaVuSans-2d" x="254.492188"/>
       <use xlink:href="#DejaVuSans-30" x="290.576172"/>
       <use xlink:href="#DejaVuSans-31" x="354.199219"/>
      </g>
     </g>
    </g>
    <g id="xtick_4">
     <g id="line2d_7">
      <path d="M 417.342312 305.734503 
L 417.342312 27.6 
" clip-path="url(#pc1fb584af9)" style="fill: none; stroke-dasharray: 2.96,1.28; stroke-dashoffset: 0; stroke: #ffffff; stroke-opacity: 0.1; stroke-width: 0.8"/>
     </g>
     <g id="line2d_8">
      <g>
       <use xlink:href="#m7fbca3304d" x="417.342312" y="305.734503" style="fill: #ffffff; stroke: #ffffff; stroke-width: 0.8"/>
      </g>
     </g>
     <g id="text_4">
      <!-- 2024-01 -->
      <g style="fill: #ffffff" transform="translate(404.52103 347.65232) rotate(-45) scale(0.1 -0.1)">
       <defs>
        <path id="DejaVuSans-34" d="M 2419 4116 
L 825 1625 
L 2419 1625 
L 2419 4116 
z
M 2253 4666 
L 3047 4666 
L 3047 1625 
L 3713 1625 
L 3713 1100 
L 3047 1100 
L 3047 0 
L 2419 0 
L 2419 1100 
L 313 1100 
L 313 1709 
L 2253 4666 
z
" transform="scale(0.015625)"/>
       </defs>
       <use xlink:href="#DejaVuSans-32"/>
       <use xlink:href="#DejaVuSans-30" x="63.623047"/>
       <use xlink:href="#DejaVuSans-32" x="127.246094"/>
       <use xlink:href="#DejaVuSans-34" x="190.869141"/>
       <use xlink:href="#DejaVuSans-2d" x="254.492188"/>
       <use xlink:href="#DejaVuSans-30" x="290.576172"/>
       <use xlink:href="#DejaVuSans-31" x="354.199219"/>
      </g>
     </g>
    </g>
    <g id="xtick_5">
     <g id="line2d_9">
      <path d="M 529.44801 305.734503 
L 529.44801 27.6 
" clip-path="url(#pc1fb584af9)" style="fill: none; stroke-dasharray: 2.96,1.28; stroke-dashoffset: 0; stroke: #ffffff; stroke-opacity: 0.1; stroke-width: 0.8"/>
     </g>
     <g id="line2d_10">
      <g>
       <use xlink:href="#m7fbca3304d" x="529.44801" y="305.734503" style="fill: #ffffff; stroke: #ffffff; stroke-width: 0.8"/>
      </g>
     </g>
     <g id="text_5">
      <!-- 2025-01 -->
      <g style="fill: #ffffff" transform="translate(516.626727 347.65232) rotate(-45) scale(0.1 -0.1)">
       <defs>
        <path id="DejaVuSans-35" d="M 691 4666 
L 3169 4666 
L 3169 4134 
L 1269 4134 
L 1269 2991 
Q 1406 3038 1543 3061 
Q 1681 3084 1819 3084 
Q 2600 3084 3056 2656 
Q 3513 2228 3513 1497 
Q 3513 744 3044 326 
Q 2575 -91 1722 -91 
Q 1428 -91 1123 -41 
Q 819 9 494 109 
L 494 744 
Q 775 591 1075 516 
Q 1375 441 1709 441 
Q 2250 441 2565 725 
Q 2881 1009 2881 1497 
Q 2881 1984 2565 2268 
Q 2250 2553 1709 2553 
Q 1456 2553 1204 2497 
Q 953 2441 691 2322 
L 691 4666 
z
" transform="scale(0.015625)"/>
       </defs>
       <use xlink:href="#DejaVuSans-32"/>
       <use xlink:href="#DejaVuSans-30" x="63.623047"/>
       <use xlink:href="#DejaVuSans-32" x="127.246094"/>
       <use xlink:href="#DejaVuSans-35" x="190.869141"/>
       <use xlink:href="#DejaVuSans-2d" x="254.492188"/>
       <use xlink:href="#DejaVuSans-30" x="290.576172"/>
       <use xlink:href="#DejaVuSans-31" x="354.199219"/>
      </g>
     </g>
    </g>
    <g id="xtick_6">
     <g id="line2d_11">
      <path d="M 641.247407 305.734503 
L 641.247407 27.6 
" clip-path="url(#pc1fb584af9)" style="fill: none; stroke-dasharray: 2.96,1.28; stroke-dashoffset: 0; stroke: #ffffff; stroke-opacity: 0.1; stroke-width: 0.8"/>
     </g>
     <g id="line2d_12">
      <g>
       <use xlink:href="#m7fbca3304d" x="641.247407" y="305.734503" style="fill: #ffffff; stroke: #ffffff; stroke-width: 0.8"/>
      </g>
     </g>
     <g id="text_6">
      <!-- 2026-01 -->
      <g style="fill: #ffffff" transform="translate(628.426125 347.65232) rotate(-45) scale(0.1 -0.1)">
       <defs>
        <path id="DejaVuSans-36" d="M 2113 2584 
Q 1688 2584 1439 2293 
Q 1191 2003 1191 1497 
Q 1191 994 1439 701 
Q 1688 409 2113 409 
Q 2538 409 2786 701 
Q 3034 994 3034 1497 
Q 3034 2003 2786 2293 
Q 2538 2584 2113 2584 
z
M 3366 4563 
L 3366 3988 
Q 3128 4100 2886 4159 
Q 2644 4219 2406 4219 
Q 1781 4219 1451 3797 
Q 1122 3375 1075 2522 
Q 1259 2794 1537 2939 
Q 1816 3084 2150 3084 
Q 2853 3084 3261 2657 
Q 3669 2231 3669 1497 
Q 3669 778 3244 343 
Q 2819 -91 2113 -91 
Q 1303 -91 875 529 
Q 447 1150 447 2328 
Q 447 3434 972 4092 
Q 1497 4750 2381 4750 
Q 2619 4750 2861 4703 
Q 3103 4656 3366 4563 
z
" transform="scale(0.015625)"/>
       </defs>
       <use xlink:href="#DejaVuSans-32"/>
       <use xlink:href="#DejaVuSans-30" x="63.623047"/>
       <use xlink:href="#DejaVuSans-32" x="127.246094"/>
       <use xlink:href="#DejaVuSans-36" x="190.869141"/>
       <use xlink:href="#DejaVuSans-2d" x="254.492188"/>
       <use xlink:href="#DejaVuSans-30" x="290.576172"/>
       <use xlink:href="#DejaVuSans-31" x="354.199219"/>
      </g>
     </g>
    </g>
   </g>
   <g id="matplotlib.axis_2">
    <g id="ytick_1">
     <g id="line2d_13">
      <path d="M 43.09 293.092026 
L 709.2 293.092026 
" clip-path="url(#pc1fb584af9)" style="fill: none; stroke-dasharray: 2.96,1.28; stroke-dashoffset: 0; stroke: #ffffff; stroke-opacity: 0.1; stroke-width: 0.8"/>
     </g>
     <g id="line2d_14">
      <defs>
       <path id="mbddaf84e0b" d="M 0 0 
L -3.5 0 
" style="stroke: #ffffff; stroke-width: 0.8"/>
      </defs>
      <g>
       <use xlink:href="#mbddaf84e0b" x="43.09" y="293.092026" style="fill: #ffffff; stroke: #ffffff; stroke-width: 0.8"/>
      </g>
     </g>
     <g id="text_7">
      <!-- 0 -->
      <g style="fill: #ffffff" transform="translate(29.7275 296.891245) scale(0.1 -0.1)">
       <use xlink:href="#DejaVuSans-30"/>
      </g>
     </g>
    </g>
    <g id="ytick_2">
     <g id="line2d_15">
      <path d="M 43.09 248.57626 
L 709.2 248.57626 
" clip-path="url(#pc1fb584af9)" style="fill: none; stroke-dasharray: 2.96,1.28; stroke-dashoffset: 0; stroke: #ffffff; stroke-opacity: 0.1; stroke-width: 0.8"/>
     </g>
     <g id="line2d_16">
      <g>
       <use xlink:href="#mbddaf84e0b" x="43.09" y="248.57626" style="fill: #ffffff; stroke: #ffffff; stroke-width: 0.8"/>
      </g>
     </g>
     <g id="text_8">
      <!-- 1000 -->
      <g style="fill: #ffffff" transform="translate(10.64 252.375479) scale(0.1 -0.1)">
       <use xlink:href="#DejaVuSans-31"/>
       <use xlink:href="#DejaVuSans-30" x="63.623047"/>
       <use xlink:href="#DejaVuSans-30" x="127.246094"/>
       <use xlink:href="#DejaVuSans-30" x="190.869141"/>
      </g>
     </g>
    </g>
    <g id="ytick_3">
     <g id="line2d_17">
      <path d="M 43.09 204.060495 
L 709.2 204.060495 
" clip-path="url(#pc1fb584af9)" style="fill: none; stroke-dasharray: 2.96,1.28; stroke-dashoffset: 0; stroke: #ffffff; stroke-opacity: 0.1; stroke-width: 0.8"/>
     </g>
     <g id="line2d_18">
      <g>
       <use xlink:href="#mbddaf84e0b" x="43.09" y="204.060495" style="fill: #ffffff; stroke: #ffffff; stroke-width: 0.8"/>
      </g>
     </g>
     <g id="text_9">
      <!-- 2000 -->
      <g style="fill: #ffffff" transform="translate(10.64 207.859713) scale(0.1 -0.1)">
       <use xlink:href="#DejaVuSans-32"/>
       <use xlink:href="#DejaVuSans-30" x="63.623047"/>
       <use xlink:href="#DejaVuSans-30" x="127.246094"/>
       <use xlink:href="#DejaVuSans-30" x="190.869141"/>
      </g>
     </g>
    </g>
    <g id="ytick_4">
     <g id="line2d_19">
      <path d="M 43.09 159.544729 
L 709.2 159.544729 
" clip-path="url(#pc1fb584af9)" style="fill: none; stroke-dasharray: 2.96,1.28; stroke-dashoffset: 0; stroke: #ffffff; stroke-opacity: 0.1; stroke-width: 0.8"/>
     </g>
     <g id="line2d_20">
      <g>
       <use xlink:href="#mbddaf84e0b" x="43.09" y="159.544729" style="fill: #ffffff; stroke: #ffffff; stroke-width: 0.8"/>
      </g>
     </g>
     <g id="text_10">
      <!-- 3000 -->
      <g style="fill: #ffffff" transform="translate(10.64 163.343948) scale(0.1 -0.1)">
       <use xlink:href="#DejaVuSans-33"/>
       <use xlink:href="#DejaVuSans-30" x="63.623047"/>
       <use xlink:href="#DejaVuSans-30" x="127.246094"/>
       <use xlink:href="#DejaVuSans-30" x="190.869141"/>
      </g>
     </g>
    </g>
    <g id="ytick_5">
     <g id="line2d_21">
      <path d="M 43.09 115.028964 
L 709.2 115.028964 
" clip-path="url(#pc1fb584af9)" style="fill: none; stroke-dasharray: 2.96,1.28; stroke-dashoffset: 0; stroke: #ffffff; stroke-opacity: 0.1; stroke-width: 0.8"/>
     </g>
     <g id="line2d_22">
      <g>
       <use xlink:href="#mbddaf84e0b" x="43.09" y="115.028964" style="fill: #ffffff; stroke: #ffffff; stroke-width: 0.8"/>
      </g>
     </g>
     <g id="text_11">
      <!-- 4000 -->
      <g style="fill: #ffffff" transform="translate(10.64 118.828182) scale(0.1 -0.1)">
       <use xlink:href="#DejaVuSans-34"/>
       <use xlink:href="#DejaVuSans-30" x="63.623047"/>
       <use xlink:href="#DejaVuSans-30" x="127.246094"/>
       <use xlink:href="#DejaVuSans-30" x="190.869141"/>
      </g>
     </g>
    </g>
    <g id="ytick_6">
     <g id="line2d_23">
      <path d="M 43.09 70.513198 
L 709.2 70.513198 
" clip-path="url(#pc1fb584af9)" style="fill: none; stroke-dasharray: 2.96,1.28; stroke-dashoffset: 0; stroke: #ffffff; stroke-opacity: 0.1; stroke-width: 0.8"/>
     </g>
     <g id="line2d_24">
      <g>
       <use xlink:href="#mbddaf84e0b" x="43.09" y="70.513198" style="fill: #ffffff; stroke: #ffffff; stroke-width: 0.8"/>
      </g>
     </g>
     <g id="text_12">
      <!-- 5000 -->
      <g style="fill: #ffffff" transform="translate(10.64 74.312417) scale(0.1 -0.1)">
       <use xlink:href="#DejaVuSans-35"/>
       <use xlink:href="#DejaVuSans-30" x="63.623047"/>
       <use xlink:href="#DejaVuSans-30" x="127.246094"/>
       <use xlink:href="#DejaVuSans-30" x="190.869141"/>
      </g>
     </g>
    </g>
   </g>
   <g id="line2d_25">
    <path d="M 73.367727 265.136125 
L 132.483573 265.136125 
L 132.483573 262.77679 
L 229.580584 262.77679 
L 229.580584 269.81028 
L 235.093979 269.81028 
L 235.093979 263.667105 
L 235.706579 263.667105 
L 235.706579 262.287116 
L 251.021565 262.287116 
L 251.021565 253.161384 
L 307.380713 253.161384 
L 307.380713 246.216925 
L 307.687013 246.216925 
L 307.687013 239.049886 
L 307.993312 239.049886 
L 307.993312 235.355078 
L 327.596494 235.355078 
L 327.596494 231.97188 
L 334.947688 231.97188 
L 334.947688 231.081564 
L 347.505976 231.081564 
L 347.505976 227.253209 
L 347.812276 227.253209 
L 347.812276 225.87322 
L 355.776069 225.87322 
L 355.776069 225.517094 
L 367.721758 225.517094 
L 367.721758 225.294515 
L 368.028057 225.294515 
L 368.028057 223.024211 
L 370.478455 223.024211 
L 370.478455 221.377128 
L 370.784755 221.377128 
L 370.784755 188.702556 
L 371.091055 188.702556 
L 371.091055 187.678693 
L 371.397354 187.678693 
L 371.397354 184.0284 
L 371.703654 184.0284 
L 371.703654 180.378107 
L 372.009954 180.378107 
L 372.009954 177.083941 
L 372.316254 177.083941 
L 372.316254 176.14911 
L 372.928853 176.14911 
L 372.928853 173.745258 
L 374.460352 173.745258 
L 374.460352 169.338198 
L 415.198214 169.338198 
L 415.198214 163.284053 
L 441.53999 163.284053 
L 441.53999 158.209256 
L 445.215587 158.209256 
L 445.215587 153.357038 
L 452.56678 153.357038 
L 452.56678 153.22349 
L 459.611674 153.22349 
L 459.611674 150.59706 
L 481.665253 150.59706 
L 481.665253 143.87518 
L 489.629046 143.87518 
L 489.629046 137.019752 
L 490.241646 137.019752 
L 490.241646 133.14688 
L 497.286539 133.14688 
L 497.286539 124.688885 
L 504.637732 124.688885 
L 504.637732 112.447049 
L 507.39443 112.447049 
L 507.39443 111.245124 
L 526.385012 111.245124 
L 526.385012 103.855506 
L 528.83541 103.855506 
L 528.83541 95.62009 
L 553.033088 95.62009 
L 553.033088 87.696284 
L 560.384281 87.696284 
L 560.384281 82.710518 
L 591.320553 82.710518 
L 591.320553 77.368626 
L 591.626853 77.368626 
L 591.626853 75.053806 
L 592.239452 75.053806 
L 592.239452 66.640326 
L 592.852052 66.640326 
L 592.852052 64.50357 
L 602.347343 64.50357 
L 602.347343 56.802342 
L 678.922273 56.802342 
L 678.922273 40.242477 
" clip-path="url(#pc1fb584af9)" style="fill: none; stroke: #00f2ff; stroke-width: 2; stroke-linecap: square"/>
   </g>
   <g id="text_13">
    <!-- Lines of Code (SLOC): hooyuser/Topology -->
    <g style="fill: #ffffff" transform="translate(214.2175 21.6) scale(0.14 -0.14)">
     <defs>
      <path id="DejaVuSans-Bold-4c" d="M 588 4666 
L 1791 4666 
L 1791 909 
L 3903 909 
L 3903 0 
L 588 0 
L 588 4666 
z
" transform="scale(0.015625)"/>
      <path id="DejaVuSans-Bold-69" d="M 538 3500 
L 1656 3500 
L 1656 0 
L 538 0 
L 538 3500 
z
M 538 4863 
L 1656 4863 
L 1656 3950 
L 538 3950 
L 538 4863 
z
" transform="scale(0.015625)"/>
      <path id="DejaVuSans-Bold-6e" d="M 4056 2131 
L 4056 0 
L 2931 0 
L 2931 347 
L 2931 1631 
Q 2931 2084 2911 2256 
Q 2891 2428 2841 2509 
Q 2775 2619 2662 2680 
Q 2550 2741 2406 2741 
Q 2056 2741 1856 2470 
Q 1656 2200 1656 1722 
L 1656 0 
L 538 0 
L 538 3500 
L 1656 3500 
L 1656 2988 
Q 1909 3294 2193 3439 
Q 2478 3584 2822 3584 
Q 3428 3584 3742 3212 
Q 4056 2841 4056 2131 
z
" transform="scale(0.015625)"/>
      <path id="DejaVuSans-Bold-65" d="M 4031 1759 
L 4031 1441 
L 1416 1441 
Q 1456 1047 1700 850 
Q 1944 653 2381 653 
Q 2734 653 3104 758 
Q 3475 863 3866 1075 
L 3866 213 
Q 3469 63 3072 -14 
Q 2675 -91 2278 -91 
Q 1328 -91 801 392 
Q 275 875 275 1747 
Q 275 2603 792 3093 
Q 1309 3584 2216 3584 
Q 3041 3584 3536 3087 
Q 4031 2591 4031 1759 
z
M 2881 2131 
Q 2881 2450 2695 2645 
Q 2509 2841 2209 2841 
Q 1884 2841 1681 2658 
Q 1478 2475 1428 2131 
L 2881 2131 
z
" transform="scale(0.015625)"/>
      <path id="DejaVuSans-Bold-73" d="M 3272 3391 
L 3272 2541 
Q 2913 2691 2578 2766 
Q 2244 2841 1947 2841 
Q 1628 2841 1473 2761 
Q 1319 2681 1319 2516 
Q 1319 2381 1436 2309 
Q 1553 2238 1856 2203 
L 2053 2175 
Q 2913 2066 3209 1816 
Q 3506 1566 3506 1031 
Q 3506 472 3093 190 
Q 2681 -91 1863 -91 
Q 1516 -91 1145 -36 
Q 775 19 384 128 
L 384 978 
Q 719 816 1070 734 
Q 1422 653 1784 653 
Q 2113 653 2278 743 
Q 2444 834 2444 1013 
Q 2444 1163 2330 1236 
Q 2216 1309 1875 1350 
L 1678 1375 
Q 931 1469 631 1722 
Q 331 1975 331 2491 
Q 331 3047 712 3315 
Q 1094 3584 1881 3584 
Q 2191 3584 2531 3537 
Q 2872 3491 3272 3391 
z
" transform="scale(0.015625)"/>
      <path id="DejaVuSans-Bold-20" transform="scale(0.015625)"/>
      <path id="DejaVuSans-Bold-6f" d="M 2203 2784 
Q 1831 2784 1636 2517 
Q 1441 2250 1441 1747 
Q 1441 1244 1636 976 
Q 1831 709 2203 709 
Q 2569 709 2762 976 
Q 2956 1244 2956 1747 
Q 2956 2250 2762 2517 
Q 2569 2784 2203 2784 
z
M 2203 3584 
Q 3106 3584 3614 3096 
Q 4122 2609 4122 1747 
Q 4122 884 3614 396 
Q 3106 -91 2203 -91 
Q 1297 -91 786 396 
Q 275 884 275 1747 
Q 275 2609 786 3096 
Q 1297 3584 2203 3584 
z
" transform="scale(0.015625)"/>
      <path id="DejaVuSans-Bold-66" d="M 2841 4863 
L 2841 4128 
L 2222 4128 
Q 1984 4128 1890 4042 
Q 1797 3956 1797 3744 
L 1797 3500 
L 2753 3500 
L 2753 2700 
L 1797 2700 
L 1797 0 
L 678 0 
L 678 2700 
L 122 2700 
L 122 3500 
L 678 3500 
L 678 3744 
Q 678 4316 997 4589 
Q 1316 4863 1984 4863 
L 2841 4863 
z
" transform="scale(0.015625)"/>
      <path id="DejaVuSans-Bold-43" d="M 4288 256 
Q 3956 84 3597 -3 
Q 3238 -91 2847 -91 
Q 1681 -91 1000 561 
Q 319 1213 319 2328 
Q 319 3447 1000 4098 
Q 1681 4750 2847 4750 
Q 3238 4750 3597 4662 
Q 3956 4575 4288 4403 
L 4288 3438 
Q 3953 3666 3628 3772 
Q 3303 3878 2944 3878 
Q 2300 3878 1931 3465 
Q 1563 3053 1563 2328 
Q 1563 1606 1931 1193 
Q 2300 781 2944 781 
Q 3303 781 3628 887 
Q 3953 994 4288 1222 
L 4288 256 
z
" transform="scale(0.015625)"/>
      <path id="DejaVuSans-Bold-64" d="M 2919 2988 
L 2919 4863 
L 4044 4863 
L 4044 0 
L 2919 0 
L 2919 506 
Q 2688 197 2409 53 
Q 2131 -91 1766 -91 
Q 1119 -91 703 423 
Q 288 938 288 1747 
Q 288 2556 703 3070 
Q 1119 3584 1766 3584 
Q 2128 3584 2408 3439 
Q 2688 3294 2919 2988 
z
M 2181 722 
Q 2541 722 2730 984 
Q 2919 1247 2919 1747 
Q 2919 2247 2730 2509 
Q 2541 2772 2181 2772 
Q 1825 2772 1636 2509 
Q 1447 2247 1447 1747 
Q 1447 1247 1636 984 
Q 1825 722 2181 722 
z
" transform="scale(0.015625)"/>
      <path id="DejaVuSans-Bold-28" d="M 2413 -844 
L 1484 -844 
Q 1006 -72 778 623 
Q 550 1319 550 2003 
Q 550 2688 779 3389 
Q 1009 4091 1484 4856 
L 2413 4856 
Q 2013 4116 1813 3408 
Q 1613 2700 1613 2009 
Q 1613 1319 1811 609 
Q 2009 -100 2413 -844 
z
" transform="scale(0.015625)"/>
      <path id="DejaVuSans-Bold-53" d="M 3834 4519 
L 3834 3531 
Q 3450 3703 3084 3790 
Q 2719 3878 2394 3878 
Q 1963 3878 1756 3759 
Q 1550 3641 1550 3391 
Q 1550 3203 1689 3098 
Q 1828 2994 2194 2919 
L 2706 2816 
Q 3484 2659 3812 2340 
Q 4141 2022 4141 1434 
Q 4141 663 3683 286 
Q 3225 -91 2284 -91 
Q 1841 -91 1394 -6 
Q 947 78 500 244 
L 500 1259 
Q 947 1022 1364 901 
Q 1781 781 2169 781 
Q 2563 781 2772 912 
Q 2981 1044 2981 1288 
Q 2981 1506 2839 1625 
Q 2697 1744 2272 1838 
L 1806 1941 
Q 1106 2091 782 2419 
Q 459 2747 459 3303 
Q 459 4000 909 4375 
Q 1359 4750 2203 4750 
Q 2588 4750 2994 4692 
Q 3400 4634 3834 4519 
z
" transform="scale(0.015625)"/>
      <path id="DejaVuSans-Bold-4f" d="M 2719 3878 
Q 2169 3878 1866 3472 
Q 1563 3066 1563 2328 
Q 1563 1594 1866 1187 
Q 2169 781 2719 781 
Q 3272 781 3575 1187 
Q 3878 1594 3878 2328 
Q 3878 3066 3575 3472 
Q 3272 3878 2719 3878 
z
M 2719 4750 
Q 3844 4750 4481 4106 
Q 5119 3463 5119 2328 
Q 5119 1197 4481 553 
Q 3844 -91 2719 -91 
Q 1597 -91 958 553 
Q 319 1197 319 2328 
Q 319 3463 958 4106 
Q 1597 4750 2719 4750 
z
" transform="scale(0.015625)"/>
      <path id="DejaVuSans-Bold-29" d="M 513 -844 
Q 913 -100 1113 609 
Q 1313 1319 1313 2009 
Q 1313 2700 1113 3408 
Q 913 4116 513 4856 
L 1441 4856 
Q 1916 4091 2145 3389 
Q 2375 2688 2375 2003 
Q 2375 1319 2147 623 
Q 1919 -72 1441 -844 
L 513 -844 
z
" transform="scale(0.015625)"/>
      <path id="DejaVuSans-Bold-3a" d="M 716 3500 
L 1844 3500 
L 1844 2291 
L 716 2291 
L 716 3500 
z
M 716 1209 
L 1844 1209 
L 1844 0 
L 716 0 
L 716 1209 
z
" transform="scale(0.015625)"/>
      <path id="DejaVuSans-Bold-68" d="M 4056 2131 
L 4056 0 
L 2931 0 
L 2931 347 
L 2931 1625 
Q 2931 2084 2911 2256 
Q 2891 2428 2841 2509 
Q 2775 2619 2662 2680 
Q 2550 2741 2406 2741 
Q 2056 2741 1856 2470 
Q 1656 2200 1656 1722 
L 1656 0 
L 538 0 
L 538 4863 
L 1656 4863 
L 1656 2988 
Q 1909 3294 2193 3439 
Q 2478 3584 2822 3584 
Q 3428 3584 3742 3212 
Q 4056 2841 4056 2131 
z
" transform="scale(0.015625)"/>
      <path id="DejaVuSans-Bold-79" d="M 78 3500 
L 1197 3500 
L 2138 1125 
L 2938 3500 
L 4056 3500 
L 2584 -331 
Q 2363 -916 2067 -1148 
Q 1772 -1381 1288 -1381 
L 641 -1381 
L 641 -647 
L 991 -647 
Q 1275 -647 1404 -556 
Q 1534 -466 1606 -231 
L 1638 -134 
L 78 3500 
z
" transform="scale(0.015625)"/>
      <path id="DejaVuSans-Bold-75" d="M 500 1363 
L 500 3500 
L 1625 3500 
L 1625 3150 
Q 1625 2866 1622 2436 
Q 1619 2006 1619 1863 
Q 1619 1441 1641 1255 
Q 1663 1069 1716 984 
Q 1784 875 1895 815 
Q 2006 756 2150 756 
Q 2500 756 2700 1025 
Q 2900 1294 2900 1772 
L 2900 3500 
L 4019 3500 
L 4019 0 
L 2900 0 
L 2900 506 
Q 2647 200 2364 54 
Q 2081 -91 1741 -91 
Q 1134 -91 817 281 
Q 500 653 500 1363 
z
" transform="scale(0.015625)"/>
      <path id="DejaVuSans-Bold-72" d="M 3138 2547 
Q 2991 2616 2845 2648 
Q 2700 2681 2553 2681 
Q 2122 2681 1889 2404 
Q 1656 2128 1656 1613 
L 1656 0 
L 538 0 
L 538 3500 
L 1656 3500 
L 1656 2925 
Q 1872 3269 2151 3426 
Q 2431 3584 2822 3584 
Q 2878 3584 2943 3579 
Q 3009 3575 3134 3559 
L 3138 2547 
z
" transform="scale(0.015625)"/>
      <path id="DejaVuSans-Bold-2f" d="M 1644 4666 
L 2338 4666 
L 691 -594 
L 0 -594 
L 1644 4666 
z
" transform="scale(0.015625)"/>
      <path id="DejaVuSans-Bold-54" d="M 31 4666 
L 4331 4666 
L 4331 3756 
L 2784 3756 
L 2784 0 
L 1581 0 
L 1581 3756 
L 31 3756 
L 31 4666 
z
" transform="scale(0.015625)"/>
      <path id="DejaVuSans-Bold-70" d="M 1656 506 
L 1656 -1331 
L 538 -1331 
L 538 3500 
L 1656 3500 
L 1656 2988 
Q 1888 3294 2169 3439 
Q 2450 3584 2816 3584 
Q 3463 3584 3878 3070 
Q 4294 2556 4294 1747 
Q 4294 938 3878 423 
Q 3463 -91 2816 -91 
Q 2450 -91 2169 54 
Q 1888 200 1656 506 
z
M 2400 2772 
Q 2041 2772 1848 2508 
Q 1656 2244 1656 1747 
Q 1656 1250 1848 986 
Q 2041 722 2400 722 
Q 2759 722 2948 984 
Q 3138 1247 3138 1747 
Q 3138 2247 2948 2509 
Q 2759 2772 2400 2772 
z
" transform="scale(0.015625)"/>
      <path id="DejaVuSans-Bold-6c" d="M 538 4863 
L 1656 4863 
L 1656 0 
L 538 0 
L 538 4863 
z
" transform="scale(0.015625)"/>
      <path id="DejaVuSans-Bold-67" d="M 2919 594 
Q 2688 288 2409 144 
Q 2131 0 1766 0 
Q 1125 0 706 504 
Q 288 1009 288 1791 
Q 288 2575 706 3076 
Q 1125 3578 1766 3578 
Q 2131 3578 2409 3434 
Q 2688 3291 2919 2981 
L 2919 3500 
L 4044 3500 
L 4044 353 
Q 4044 -491 3511 -936 
Q 2978 -1381 1966 -1381 
Q 1638 -1381 1331 -1331 
Q 1025 -1281 716 -1178 
L 716 -306 
Q 1009 -475 1290 -558 
Q 1572 -641 1856 -641 
Q 2406 -641 2662 -400 
Q 2919 -159 2919 353 
L 2919 594 
z
M 2181 2772 
Q 1834 2772 1640 2515 
Q 1447 2259 1447 1791 
Q 1447 1309 1634 1061 
Q 1822 813 2181 813 
Q 2531 813 2725 1069 
Q 2919 1325 2919 1791 
Q 2919 2259 2725 2515 
Q 2531 2772 2181 2772 
z
" transform="scale(0.015625)"/>
     </defs>
     <use xlink:href="#DejaVuSans-Bold-4c"/>
     <use xlink:href="#DejaVuSans-Bold-69" x="63.720703"/>
     <use xlink:href="#DejaVuSans-Bold-6e" x="97.998047"/>
     <use xlink:href="#DejaVuSans-Bold-65" x="169.189453"/>
     <use xlink:href="#DejaVuSans-Bold-73" x="237.011719"/>
     <use xlink:href="#DejaVuSans-Bold-20" x="296.533203"/>
     <use xlink:href="#DejaVuSans-Bold-6f" x="331.347656"/>
     <use xlink:href="#DejaVuSans-Bold-66" x="400.048828"/>
     <use xlink:href="#DejaVuSans-Bold-20" x="443.554688"/>
     <use xlink:href="#DejaVuSans-Bold-43" x="478.369141"/>
     <use xlink:href="#DejaVuSans-Bold-6f" x="551.757812"/>
     <use xlink:href="#DejaVuSans-Bold-64" x="620.458984"/>
     <use xlink:href="#DejaVuSans-Bold-65" x="692.041016"/>
     <use xlink:href="#DejaVuSans-Bold-20" x="759.863281"/>
     <use xlink:href="#DejaVuSans-Bold-28" x="794.677734"/>
     <use xlink:href="#DejaVuSans-Bold-53" x="840.380859"/>
     <use xlink:href="#DejaVuSans-Bold-4c" x="912.402344"/>
     <use xlink:href="#DejaVuSans-Bold-4f" x="972.498047"/>
     <use xlink:href="#DejaVuSans-Bold-43" x="1057.507812"/>
     <use xlink:href="#DejaVuSans-Bold-29" x="1130.896484"/>
     <use xlink:href="#DejaVuSans-Bold-3a" x="1176.599609"/>
     <use xlink:href="#DejaVuSans-Bold-20" x="1216.589844"/>
     <use xlink:href="#DejaVuSans-Bold-68" x="1251.404297"/>
     <use xlink:href="#DejaVuSans-Bold-6f" x="1322.595703"/>
     <use xlink:href="#DejaVuSans-Bold-6f" x="1391.296875"/>
     <use xlink:href="#DejaVuSans-Bold-79" x="1459.998047"/>
     <use xlink:href="#DejaVuSans-Bold-75" x="1525.183594"/>
     <use xlink:href="#DejaVuSans-Bold-73" x="1596.375"/>
     <use xlink:href="#DejaVuSans-Bold-65" x="1655.896484"/>
     <use xlink:href="#DejaVuSans-Bold-72" x="1723.71875"/>
     <use xlink:href="#DejaVuSans-Bold-2f" x="1773.035156"/>
     <use xlink:href="#DejaVuSans-Bold-54" x="1809.558594"/>
     <use xlink:href="#DejaVuSans-Bold-6f" x="1864.521484"/>
     <use xlink:href="#DejaVuSans-Bold-70" x="1933.222656"/>
     <use xlink:href="#DejaVuSans-Bold-6f" x="2004.804688"/>
     <use xlink:href="#DejaVuSans-Bold-6c" x="2073.505859"/>
     <use xlink:href="#DejaVuSans-Bold-6f" x="2107.783203"/>
     <use xlink:href="#DejaVuSans-Bold-67" x="2176.484375"/>
     <use xlink:href="#DejaVuSans-Bold-79" x="2248.066406"/>
    </g>
   </g>
  </g>
 </g>
 <defs>
  <clipPath id="pc1fb584af9">
   <rect x="43.09" y="27.6" width="666.11" height="278.134503"/>
  </clipPath>
 </defs>
</svg>
